<svg width="24.000000" height="24.000000" viewBox="0 0 24 24" fill="none" xmlns="http://www.w3.org/2000/svg" xmlns:xlink="http://www.w3.org/1999/xlink">

	<defs>
		<clipPath id="clip1798_7698">
			<rect id="Linear / School / Square Academic Cap" width="24.000000" height="24.000000" fill="white" fill-opacity="0"/>
		</clipPath>
	</defs>
	<g clip-path="url(#clip1798_7698)">
		<path id="Vector" d="M20.9 6.63C22.36 7.31 22.36 9.68 20.9 10.36L14.21 13.5C12.79 14.16 11.2 14.16 9.78 13.5L3.09 10.36C1.63 9.68 1.63 7.31 3.09 6.63L9.78 3.5C11.2 2.83 12.79 2.83 14.21 3.5L20.9 6.63Z" stroke="#1C274D" stroke-opacity="1.000000" stroke-width="1.500000"/>
		<path id="Vector" d="M2 8.5L2 14" stroke="#1C274D" stroke-opacity="1.000000" stroke-width="1.500000" stroke-linecap="round"/>
		<path id="Vector" d="M5 11.5L5 16.62C5 17.63 5.5 18.57 6.38 19.06C7.85 19.87 10.2 21 12 21C13.79 21 16.14 19.87 17.61 19.06C18.49 18.57 19 17.63 19 16.62L19 11.5" stroke="#1C274D" stroke-opacity="1.000000" stroke-width="1.500000" stroke-linecap="round"/>
	</g>
</svg>
