<?xml version="1.0" encoding="utf-8"?>
<svg width="24.000000" height="24.000000" viewBox="0 0 24 24" fill="none" xmlns="http://www.w3.org/2000/svg">
  <defs>
    <clipPath id="clip1798_7698">
      <rect width="24.000000" height="24.000000" fill="white" fill-opacity="0"/>
    </clipPath>
  </defs>
  <g clip-path="url(#clip1798_7698)">
    <path d="M14.4 7.9C14.4 7.40294 13.9971 7 13.5 7C13.0029 7 12.6 7.40294 12.6 7.9L12.6 10.6H9.9C9.40294 10.6 9 11.003 9 11.5C9 11.9971 9.40294 12.4 9.9 12.4H12.6V15.1C12.6 15.5971 13.0029 16 13.5 16C13.9971 16 14.4 15.5971 14.4 15.1L14.4 12.4H17.1C17.5971 12.4 18 11.9971 18 11.5C18 11.003 17.5971 10.6 17.1 10.6H14.4V7.9Z" fill="#6574D8" stroke="#1C274D" stroke-opacity="1.000000" stroke-width="1.500000" stroke-linecap="round" style="paint-order: stroke;"/>
  </g>
</svg>