<svg width="20.000000" height="20.000000" viewBox="0 0 20 20" fill="none" xmlns="http://www.w3.org/2000/svg" xmlns:xlink="http://www.w3.org/1999/xlink">

	<defs>
		<clipPath id="clip77_23446">
			<rect id="Icon" width="20.000000" height="20.000000" fill="white" fill-opacity="0"/>
		</clipPath>
	</defs>
	<rect id="Icon" width="20.000000" height="20.000000" fill="#FFFFFF" fill-opacity="0"/>
	<g clip-path="url(#clip77_23446)" transform="rotate(180 10 10)">
		<path id="Vector" d="M5.29 7.29C5.48 7.1 5.73 7 6 7C6.26 7 6.51 7.1 6.7 7.29L10 10.58L13.29 7.29C13.38 7.19 13.49 7.12 13.61 7.06C13.73 7.01 13.87 6.98 14 6.98C14.13 6.98 14.26 7.01 14.39 7.06C14.51 7.11 14.62 7.18 14.71 7.28C14.81 7.37 14.88 7.48 14.93 7.6C14.98 7.73 15.01 7.86 15.01 7.99C15.01 8.12 14.98 8.26 14.93 8.38C14.87 8.5 14.8 8.61 14.7 8.7L10.7 12.7C10.51 12.89 10.26 12.99 10 12.99C9.73 12.99 9.48 12.89 9.29 12.7L5.29 8.7C5.1 8.51 5 8.26 5 8C5 7.73 5.1 7.48 5.29 7.29Z" fill="currentColor" fill-opacity="1.000000" fill-rule="evenodd"/>
	</g>
</svg>
