<svg width="46" height="45" viewBox="0 0 46 45" fill="none" xmlns="http://www.w3.org/2000/svg">
<g id="SVG" clip-path="url(#clip0_2998_3462)">
<path id="Vector" d="M23.3353 0.000152647C10.9232 0.000152647 0.5 9.75163 0.5 22.1637C0.567149 28.1993 2.99454 33.9688 7.2625 38.2369C11.5305 42.5051 17.2998 44.9327 23.3353 45.0002C35.7475 45.0002 45.4989 34.5769 45.4989 22.1648C45.5287 19.2459 44.9757 16.3504 43.8725 13.6479C42.7692 10.9454 41.1378 8.49022 39.0737 6.4261C37.0097 4.36198 34.5546 2.73044 31.8521 1.62704C29.1497 0.523632 26.2542 -0.0294601 23.3353 0.000152647ZM34.0813 25.5204L23.3353 35.5967C23.1708 35.7612 23.5674 36.2684 23.3353 36.2684C23.1033 36.2684 22.8281 35.7612 22.6636 35.5967L11.9177 25.5225C11.6646 25.2705 11.7785 25.1798 11.9177 24.8508C12.0569 24.5217 12.234 24.1727 12.5894 24.179H19.3059V9.40363C19.3059 8.92064 20.1664 8.73187 20.6494 8.73187H25.3506C25.8336 8.73187 26.6941 8.92064 26.6941 9.40363V24.1758H33.4106C33.7617 24.1758 33.9505 24.5217 34.0823 24.8476C34.2141 25.1735 34.3312 25.2736 34.0823 25.5225L34.0813 25.5204Z" fill="currentColor"/>
</g>
<defs>
<clipPath id="clip0_2998_3462">
<rect width="45" height="45" fill="currentColor" transform="translate(0.5)"/>
</clipPath>
</defs>
</svg>
