<svg width="24" height="25" viewBox="0 0 24 25" fill="none" xmlns="http://www.w3.org/2000/svg">
<g id="Button">
<g id="Vector">
<path fill-rule="evenodd" clip-rule="evenodd" d="M11.5 21.5H12.5C16.2712 21.5 18.1569 21.5 19.3284 20.3284C20.5 19.1569 20.5 17.2713 20.5 13.5V8.49805C20.3548 8.50008 20.1509 8.50005 20 8.50002H4C3.84905 8.50005 3.6452 8.50008 3.5 8.49805V13.5C3.5 17.2713 3.5 19.1569 4.67157 20.3284C5.84315 21.5 7.72876 21.5 11.5 21.5ZM9.07612 11.6173C9 11.8011 9 12.0341 9 12.5C9 12.9659 9 13.1989 9.07612 13.3827C9.17761 13.6277 9.37229 13.8224 9.61732 13.9239C9.80109 14 10.0341 14 10.5 14H13.5C13.9659 14 14.1989 14 14.3827 13.9239C14.6277 13.8224 14.8224 13.6277 14.9239 13.3827C15 13.1989 15 12.9659 15 12.5C15 12.0341 15 11.8011 14.9239 11.6173C14.8224 11.3723 14.6277 11.1776 14.3827 11.0761C14.1989 11 13.9659 11 13.5 11H10.5C10.0341 11 9.80109 11 9.61732 11.0761C9.37229 11.1776 9.17761 11.3723 9.07612 11.6173Z" fill="currentColor"/>
</g>
<g id="Vector_2">
<path d="M2 5.5C2 4.55719 2 4.08579 2.29289 3.79289C2.58579 3.5 3.05719 3.5 4 3.5H20C20.9428 3.5 21.4142 3.5 21.7071 3.79289C22 4.08579 22 4.55719 22 5.5C22 6.44281 22 6.91421 21.7071 7.20711C21.4142 7.5 20.9428 7.5 20 7.5H4C3.05719 7.5 2.58579 7.5 2.29289 7.20711C2 6.91421 2 6.44281 2 5.5Z" fill="currentColor"/>
</g>
</g>
</svg>
