<svg width="24.000000" height="24.000000" viewBox="0 0 24 24" fill="none" xmlns="http://www.w3.org/2000/svg" xmlns:xlink="http://www.w3.org/1999/xlink">
	<desc>
			Created with Pixso.
	</desc>
	<defs>
		<clipPath id="clip1798_7692">
			<rect id="Outline / Time / Calendar" rx="5.000000" width="24.000000" height="24.000000" fill="white" fill-opacity="0"/>
		</clipPath>
	</defs>
	<g clip-path="url(#clip1798_7692)">
		<path id="Union" d="M7.75 2.5C7.75 2.08 7.41 1.75 7 1.75C6.58 1.75 6.25 2.08 6.25 2.5L6.25 3.32C5.99 3.34 5.74 3.37 5.51 3.4C4.33 3.56 3.38 3.89 2.64 4.64C1.89 5.38 1.56 6.33 1.4 7.51C1.25 8.63 1.25 10.07 1.25 11.88L1.25 14.11C1.25 15.92 1.25 17.36 1.4 18.48C1.56 19.66 1.89 20.61 2.64 21.35C3.38 22.1 4.33 22.43 5.51 22.59C6.65 22.75 8.1 22.75 9.94 22.75L14.05 22.75C15.89 22.75 17.34 22.75 18.48 22.59C19.66 22.43 20.61 22.1 21.35 21.35C22.1 20.61 22.43 19.66 22.59 18.48C22.74 17.36 22.75 15.92 22.75 14.11L22.75 11.88C22.75 10.07 22.74 8.63 22.59 7.51C22.43 6.33 22.1 5.38 21.35 4.64C20.61 3.89 19.66 3.56 18.48 3.4C18.25 3.37 18 3.34 17.75 3.32L17.75 2.5C17.75 2.08 17.41 1.75 17 1.75C16.58 1.75 16.25 2.08 16.25 2.5L16.25 3.26C15.58 3.25 14.85 3.25 14.05 3.25L9.94 3.25C9.14 3.25 8.41 3.25 7.75 3.26L7.75 2.5ZM3.7 5.7C4.12 5.27 4.7 5.02 5.71 4.88C6.73 4.75 8.09 4.75 10 4.75L14 4.75C15.9 4.75 17.26 4.75 18.28 4.88C19.29 5.02 19.87 5.27 20.29 5.7C20.72 6.12 20.97 6.7 21.1 7.71C21.13 7.88 21.15 8.06 21.16 8.25L2.83 8.25C2.84 8.06 2.86 7.88 2.89 7.71C3.02 6.7 3.27 6.12 3.7 5.7ZM2.75 12C2.75 11.14 2.75 10.4 2.76 9.75L21.23 9.75C21.25 10.4 21.25 11.14 21.25 12L21.25 14C21.25 15.9 21.24 17.26 21.1 18.28C20.97 19.29 20.72 19.87 20.29 20.29C19.87 20.72 19.29 20.97 18.28 21.11C17.26 21.24 15.9 21.25 14 21.25L10 21.25C8.09 21.25 6.73 21.24 5.71 21.11C4.7 20.97 4.12 20.72 3.7 20.29C3.27 19.87 3.02 19.29 2.89 18.28C2.75 17.26 2.75 15.9 2.75 14L2.75 12ZM7 14C7.55 14 8 13.55 8 13C8 12.44 7.55 12 7 12C6.44 12 6 12.44 6 13C6 13.55 6.44 14 7 14ZM13 13C13 12.44 12.55 12 12 12C11.44 12 11 12.44 11 13C11 13.55 11.44 14 12 14C12.55 14 13 13.55 13 13ZM17 14C17.55 14 18 13.55 18 13C18 12.44 17.55 12 17 12C16.44 12 16 12.44 16 13C16 13.55 16.44 14 17 14ZM7 18C7.55 18 8 17.55 8 17C8 16.44 7.55 16 7 16C6.44 16 6 16.44 6 17C6 17.55 6.44 18 7 18ZM13 17C13 16.44 12.55 16 12 16C11.44 16 11 16.44 11 17C11 17.55 11.44 18 12 18C12.55 18 13 17.55 13 17ZM17 18C17.55 18 18 17.55 18 17C18 16.44 17.55 16 17 16C16.44 16 16 16.44 16 17C16 17.55 16.44 18 17 18Z" fill="#1C274C" fill-opacity="1.000000" fill-rule="evenodd"/>
	</g>
</svg>
