<svg width="24.000000" height="24.000000" viewBox="0 0 24 24" fill="none" xmlns="http://www.w3.org/2000/svg" xmlns:xlink="http://www.w3.org/1999/xlink">
	<desc>
			Created with Pixso.
	</desc>
	<defs>
		<clipPath id="clip73_13229">
			<rect id="Bold Duotone / Time / Calendar" rx="5.000000" width="24.000000" height="24.000000" fill="white" fill-opacity="0"/>
		</clipPath>
	</defs>
	<g clip-path="url(#clip73_13229)">
		<path id="Vector" d="M7.69 2.72C7.69 2.32 7.35 2 6.94 2C6.52 2 6.18 2.32 6.18 2.72L6.18 4.24C4.74 4.36 3.79 4.63 3.09 5.3C2.39 5.97 2.11 6.88 2 8.27L2 9L2.92 9L22 9L21.92 8.27C21.8 6.88 21.52 5.97 20.82 5.3C20.12 4.63 19.17 4.36 17.73 4.24L17.73 2.72C17.73 2.32 17.39 2 16.98 2C16.56 2 16.22 2.32 16.22 2.72L16.22 4.18C15.55 4.17 14.81 4.17 13.96 4.17L9.95 4.17C9.1 4.17 8.36 4.17 7.69 4.18L7.69 2.72Z" fill="currentColor" fill-opacity="1.000000" fill-rule="evenodd"/>
		<g opacity="0.500000">
			<path id="Vector" d="M22 14L22 12C22 11.16 21.99 9.66 21.98 9L2 9C1.99 9.66 2 11.16 2 12L2 14C2 17.77 2 19.65 3.17 20.82C4.34 22 6.22 22 10 22L14 22C17.77 22 19.65 22 20.82 20.82C22 19.65 22 17.77 22 14Z" fill="currentColor" fill-opacity="1.000000" fill-rule="nonzero"/>
		</g>
		<path id="Vector" d="M17 14C17.55 14 18 13.55 18 13C18 12.44 17.55 12 17 12C16.44 12 16 12.44 16 13C16 13.55 16.44 14 17 14ZM17 18C17.55 18 18 17.55 18 17C18 16.44 17.55 16 17 16C16.44 16 16 16.44 16 17C16 17.55 16.44 18 17 18Z" fill="currentColor" fill-opacity="1.000000" fill-rule="evenodd"/>
		<path id="Vector" d="M12 14C12.55 14 13 13.55 13 13C13 12.44 12.55 12 12 12C11.44 12 11 12.44 11 13C11 13.55 11.44 14 12 14ZM12 18C12.55 18 13 17.55 13 17C13 16.44 12.55 16 12 16C11.44 16 11 16.44 11 17C11 17.55 11.44 18 12 18Z" fill="currentColor" fill-opacity="1.000000" fill-rule="evenodd"/>
		<path id="Vector" d="M7 14C7.55 14 8 13.55 8 13C8 12.44 7.55 12 7 12C6.44 12 6 12.44 6 13C6 13.55 6.44 14 7 14ZM7 18C7.55 18 8 17.55 8 17C8 16.44 7.55 16 7 16C6.44 16 6 16.44 6 17C6 17.55 6.44 18 7 18Z" fill="currentColor" fill-opacity="1.000000" fill-rule="evenodd"/>
	</g>
</svg>
