<svg width="24.000000" height="24.000000" viewBox="0 0 24 24" fill="none" xmlns="http://www.w3.org/2000/svg" xmlns:xlink="http://www.w3.org/1999/xlink">
	<desc>
			Created with Pixso.
	</desc>
	<defs>
		<clipPath id="clip73_13240">
			<rect id="Bold Duotone / Time / Calendar Date" rx="5.000000" width="24.000000" height="24.000000" fill="white" fill-opacity="0"/>
		</clipPath>
	</defs>
	<g clip-path="url(#clip73_13240)">
		<path id="Vector" d="M7.71 2.69C7.71 2.31 7.37 2 6.96 2C6.54 2 6.2 2.31 6.2 2.69L6.2 4.15C4.75 4.25 3.8 4.51 3.1 5.15C2.4 5.79 2.11 6.67 2 8L2 9L22 9L22 8C21.88 6.67 21.59 5.79 20.89 5.15C20.19 4.51 19.24 4.25 17.79 4.15L17.79 2.69C17.79 2.31 17.45 2 17.03 2C16.62 2 16.28 2.31 16.28 2.69L16.28 4.08C15.61 4.07 14.86 4.07 14.01 4.07L9.98 4.07C9.13 4.07 8.38 4.07 7.71 4.08L7.71 2.69Z" fill="currentColor" fill-opacity="1.000000" fill-rule="evenodd"/>
		<g opacity="0.500000">
			<path id="Vector" d="M22 12L22 14C22 17.77 22 19.65 20.82 20.82C19.65 22 17.77 22 14 22L10 22C6.23 22 4.34 22 3.17 20.82C2 19.65 2 17.77 2 14L2 12C2 11.16 1.99 9.66 2 9L21.97 9C21.98 9.66 22 11.16 22 12Z" fill="currentColor" fill-opacity="1.000000" fill-rule="evenodd"/>
		</g>
		<path id="Vector" d="M10.78 12.3C11.06 12.42 11.25 12.69 11.25 13L11.25 17C11.25 17.41 10.91 17.75 10.5 17.75C10.08 17.75 9.75 17.41 9.75 17L9.75 14.81L9.53 15.03C9.23 15.32 8.76 15.32 8.46 15.03C8.17 14.73 8.17 14.26 8.46 13.96L9.96 12.46C10.18 12.25 10.5 12.19 10.78 12.3ZM12.25 14C12.25 13.03 13.03 12.25 14 12.25C14.96 12.25 15.75 13.03 15.75 14L15.75 16C15.75 16.96 14.96 17.75 14 17.75C13.03 17.75 12.25 16.96 12.25 16L12.25 14ZM13.75 14C13.75 13.86 13.86 13.75 14 13.75C14.13 13.75 14.25 13.86 14.25 14L14.25 16C14.25 16.13 14.13 16.25 14 16.25C13.86 16.25 13.75 16.13 13.75 16L13.75 14Z" fill="currentColor" fill-opacity="1.000000" fill-rule="evenodd"/>
	</g>
</svg>
