<svg width="24" height="25" viewBox="0 0 24 25" fill="none" xmlns="http://www.w3.org/2000/svg">
<g id="Bold Duotone / Call / Phone Calling Rounded">
<path id="Vector" opacity="0.5" d="M10.0376 5.91627L10.6866 7.0792C11.2723 8.12868 11.0372 9.50542 10.1147 10.4279C10.1147 10.4279 10.1147 10.4279 10.1147 10.4279C10.1146 10.428 8.99588 11.5469 11.0245 13.5756C13.0525 15.6036 14.1714 14.4862 14.1722 14.4854C14.1722 14.4854 14.1722 14.4854 14.1722 14.4854C15.0947 13.5629 16.4714 13.3278 17.5209 13.9135L18.6838 14.5625C20.2686 15.4469 20.4557 17.6693 19.0628 19.0623C18.2258 19.8993 17.2004 20.5506 16.0669 20.5935C14.1588 20.6659 10.9183 20.183 7.6677 16.9324C4.41713 13.6818 3.93421 10.4413 4.00655 8.53319C4.04952 7.3997 4.7008 6.37433 5.53781 5.53733C6.93076 4.14438 9.15317 4.33153 10.0376 5.91627Z" fill="currentColor"/>
<g id="Vector_2">
<path d="M13.2595 2.48017C13.3257 2.07128 13.7122 1.79391 14.1211 1.86011C14.1464 1.86495 14.2279 1.88017 14.2705 1.88967C14.3559 1.90868 14.4749 1.93794 14.6233 1.98116C14.9201 2.0676 15.3347 2.21001 15.8323 2.43814C16.8286 2.8949 18.1544 3.6939 19.5302 5.0697C20.906 6.4455 21.705 7.77132 22.1617 8.7676C22.3899 9.26521 22.5323 9.67981 22.6187 9.97659C22.6619 10.125 22.6912 10.244 22.7102 10.3294C22.7197 10.372 22.7267 10.4063 22.7315 10.4316L22.7373 10.4628C22.8034 10.8717 22.5286 11.2742 22.1197 11.3404C21.712 11.4064 21.3279 11.1304 21.2601 10.7234C21.258 10.7125 21.2522 10.6831 21.2461 10.6554C21.2337 10.6 21.2124 10.5122 21.1786 10.3961C21.1109 10.1637 20.9934 9.8184 20.7982 9.39272C20.4084 8.54241 19.7074 7.36823 18.4695 6.13036C17.2317 4.8925 16.0575 4.19151 15.2072 3.80168C14.7815 3.60652 14.4362 3.48899 14.2038 3.42131C14.0877 3.38748 13.9417 3.35397 13.8863 3.34164C13.4793 3.27382 13.1935 2.8879 13.2595 2.48017Z" fill="currentColor"/>
<path fill-rule="evenodd" clip-rule="evenodd" d="M13.4857 5.92964C13.5995 5.53136 14.0146 5.30074 14.4129 5.41454L14.2069 6.13568C14.4129 5.41454 14.4129 5.41454 14.4129 5.41454L14.4144 5.41495L14.4159 5.41539L14.4192 5.41637L14.427 5.41868L14.4468 5.42484C14.4618 5.42967 14.4807 5.43595 14.5031 5.44391C14.548 5.45985 14.6074 5.48251 14.6802 5.51372C14.8259 5.57615 15.0249 5.67257 15.2695 5.81728C15.7589 6.10697 16.4271 6.58814 17.2121 7.37312C17.9971 8.15809 18.4782 8.82627 18.7679 9.31574C18.9126 9.56025 19.009 9.75931 19.0715 9.905C19.1027 9.97781 19.1254 10.0372 19.1413 10.0821C19.1493 10.1045 19.1555 10.1234 19.1604 10.1384L19.1665 10.1582L19.1688 10.166L19.1698 10.1693L19.1702 10.1708C19.1702 10.1708 19.1707 10.1723 18.4495 10.3783L19.1707 10.1723C19.2845 10.5706 19.0538 10.9857 18.6556 11.0995C18.2607 11.2123 17.8492 10.9865 17.7313 10.5945L17.7276 10.5837C17.7223 10.5687 17.7113 10.5391 17.6928 10.4959C17.6558 10.4095 17.5887 10.2683 17.4771 10.0797C17.2541 9.70298 16.8514 9.13373 16.1514 8.43378C15.4515 7.73382 14.8822 7.33112 14.5055 7.10815C14.3169 6.99653 14.1757 6.92943 14.0893 6.89243C14.0461 6.87392 14.0165 6.86289 14.0015 6.85755L13.9907 6.85386C13.5987 6.73598 13.3729 6.32453 13.4857 5.92964Z" fill="currentColor"/>
</g>
</g>
</svg>
