<svg width="34" height="35" viewBox="0 0 34 35" fill="none" xmlns="http://www.w3.org/2000/svg">
<g id="Bold Duotone / Essentional, UI / Check Circle">
<path id="Vector" opacity="0.5" d="M31.1663 17.4997C31.1663 25.3237 24.8237 31.6663 16.9997 31.6663C9.17564 31.6663 2.83301 25.3237 2.83301 17.4997C2.83301 9.67564 9.17564 3.33301 16.9997 3.33301C24.8237 3.33301 31.1663 9.67564 31.1663 17.4997Z" fill="currentColor"/>
<path id="Vector_2" d="M22.71 13.2067C23.1249 13.6216 23.1249 14.2944 22.71 14.7093L15.6266 21.7926C15.2117 22.2076 14.539 22.2076 14.124 21.7926L11.2907 18.9593C10.8758 18.5444 10.8758 17.8716 11.2907 17.4567C11.7056 17.0418 12.3784 17.0418 12.7933 17.4567L14.8753 19.5387L18.0413 16.3727L21.2074 13.2067C21.6223 12.7918 22.295 12.7918 22.71 13.2067Z" fill="currentColor"/>
</g>
</svg>
