<svg width="24" height="25" viewBox="0 0 24 25" fill="none" xmlns="http://www.w3.org/2000/svg">
<g id="Bold / Notes / Clipboard Check">
<g id="Vector">
<path d="M9.5 2.5C8.67157 2.5 8 3.17157 8 4V5C8 5.82843 8.67157 6.5 9.5 6.5H14.5C15.3284 6.5 16 5.82843 16 5V4C16 3.17157 15.3284 2.5 14.5 2.5H9.5Z" fill="currentColor"/>
<path fill-rule="evenodd" clip-rule="evenodd" d="M6.5 4.53662C5.24209 4.60719 4.44798 4.80764 3.87868 5.37694C3 6.25562 3 7.66983 3 10.4983V16.4983C3 19.3267 3 20.7409 3.87868 21.6196C4.75736 22.4983 6.17157 22.4983 9 22.4983H15C17.8284 22.4983 19.2426 22.4983 20.1213 21.6196C21 20.7409 21 19.3267 21 16.4983V10.4983C21 7.66983 21 6.25562 20.1213 5.37694C19.552 4.80764 18.7579 4.60719 17.5 4.53662V5C17.5 6.65685 16.1569 8 14.5 8H9.5C7.84315 8 6.5 6.65685 6.5 5V4.53662ZM15.5117 13.0483C15.8146 12.7657 15.8309 12.2911 15.5483 11.9883C15.2657 11.6855 14.7911 11.6691 14.4883 11.9517L10.7143 15.4741L9.51174 14.3517C9.20893 14.0691 8.73434 14.0855 8.45171 14.3883C8.16909 14.6911 8.18545 15.1657 8.48826 15.4483L10.2025 17.0483C10.4907 17.3172 10.9379 17.3172 11.226 17.0483L15.5117 13.0483Z" fill="currentColor"/>
</g>
</g>
</svg>
