<svg width="24.000000" height="24.000000" viewBox="0 0 24 24" fill="none" xmlns="http://www.w3.org/2000/svg" xmlns:xlink="http://www.w3.org/1999/xlink">

	<defs>
		<clipPath id="clip73_13234">
			<rect id="Bold Duotone / Time / History 3" width="24.000000" height="24.000000" fill="white" fill-opacity="0"/>
		</clipPath>
	</defs>
	<g clip-path="url(#clip73_13234)">
		<path id="Vector" d="M21.25 12C21.25 6.89 17.1 2.75 12 2.75C11.58 2.75 11.25 2.41 11.25 2C11.25 1.58 11.58 1.25 12 1.25C17.93 1.25 22.75 6.06 22.75 12C22.75 12.41 22.41 12.75 22 12.75C21.58 12.75 21.25 12.41 21.25 12ZM12.75 9C12.75 8.58 12.41 8.25 12 8.25C11.58 8.25 11.25 8.58 11.25 9L11.25 13C11.25 13.41 11.58 13.75 12 13.75L16 13.75C16.41 13.75 16.75 13.41 16.75 13C16.75 12.58 16.41 12.25 16 12.25L12.75 12.25L12.75 9Z" fill="currentColor" fill-opacity="1.000000" fill-rule="evenodd"/>
		<g opacity="0.500000">
			<path id="Vector" d="M9.09 2.39C9.24 2.78 9.05 3.21 8.67 3.36C8.52 3.42 8.38 3.47 8.25 3.54C7.87 3.7 7.42 3.53 7.26 3.15C7.09 2.78 7.26 2.33 7.64 2.17C7.8 2.09 7.96 2.03 8.12 1.96C8.51 1.81 8.95 2.01 9.09 2.39ZM5.64 4.24C5.93 4.54 5.92 5.01 5.62 5.3C5.51 5.4 5.4 5.51 5.3 5.62C5.01 5.92 4.54 5.93 4.24 5.64C3.94 5.36 3.92 4.88 4.21 4.58C4.33 4.45 4.46 4.33 4.58 4.21C4.88 3.92 5.36 3.94 5.64 4.24ZM3.15 7.26C3.53 7.42 3.7 7.87 3.54 8.25C3.47 8.38 3.42 8.52 3.36 8.66C3.21 9.05 2.78 9.24 2.39 9.09C2.01 8.95 1.81 8.51 1.96 8.12C2.03 7.96 2.09 7.8 2.17 7.64C2.33 7.26 2.78 7.09 3.15 7.26ZM2.02 11C2.43 11.01 2.76 11.35 2.75 11.77C2.75 11.84 2.75 11.92 2.75 12C2.75 12.07 2.75 12.15 2.75 12.22C2.76 12.64 2.43 12.98 2.02 12.99C1.6 13 1.26 12.67 1.25 12.26C1.25 12.17 1.25 12.08 1.25 12C1.25 11.91 1.25 11.82 1.25 11.73C1.26 11.32 1.6 10.99 2.02 11ZM21.6 14.9C21.98 15.04 22.18 15.48 22.03 15.87C21.96 16.03 21.9 16.19 21.82 16.35C21.66 16.73 21.21 16.9 20.84 16.73C20.46 16.57 20.29 16.12 20.45 15.74C20.52 15.61 20.57 15.47 20.63 15.33C20.78 14.94 21.21 14.75 21.6 14.9ZM2.39 14.9C2.78 14.75 3.21 14.94 3.36 15.33C3.42 15.47 3.47 15.61 3.54 15.74C3.7 16.12 3.53 16.57 3.16 16.73C2.78 16.9 2.33 16.73 2.17 16.35C2.09 16.19 2.03 16.03 1.96 15.87C1.81 15.48 2.01 15.04 2.39 14.9ZM19.75 18.35C20.05 18.63 20.07 19.11 19.78 19.41C19.66 19.54 19.53 19.66 19.41 19.78C19.11 20.07 18.63 20.05 18.35 19.75C18.06 19.45 18.07 18.98 18.37 18.69C18.48 18.59 18.59 18.48 18.69 18.37C18.98 18.07 19.45 18.06 19.75 18.35ZM4.24 18.35C4.54 18.06 5.01 18.07 5.3 18.37C5.4 18.48 5.51 18.59 5.62 18.69C5.92 18.98 5.93 19.45 5.64 19.75C5.36 20.05 4.88 20.07 4.58 19.78C4.46 19.66 4.33 19.54 4.21 19.41C3.92 19.11 3.94 18.63 4.24 18.35ZM7.26 20.84C7.42 20.46 7.87 20.29 8.25 20.45C8.38 20.52 8.52 20.57 8.67 20.63C9.05 20.78 9.24 21.21 9.09 21.6C8.95 21.98 8.51 22.18 8.12 22.03C7.96 21.96 7.8 21.9 7.64 21.82C7.26 21.66 7.09 21.21 7.26 20.84ZM16.73 20.84C16.9 21.21 16.73 21.66 16.35 21.82C16.19 21.9 16.03 21.96 15.87 22.03C15.48 22.18 15.04 21.98 14.9 21.6C14.75 21.21 14.94 20.78 15.33 20.63C15.47 20.57 15.61 20.52 15.74 20.45C16.12 20.29 16.57 20.46 16.73 20.84ZM11 21.97C11.01 21.56 11.35 21.23 11.77 21.24C11.84 21.24 11.92 21.25 12 21.25C12.07 21.25 12.15 21.24 12.22 21.24C12.64 21.23 12.98 21.56 12.99 21.97C13 22.39 12.67 22.73 12.26 22.74C12.17 22.74 12.08 22.75 12 22.75C11.91 22.75 11.82 22.74 11.73 22.74C11.32 22.73 10.99 22.39 11 21.97Z" fill="currentColor" fill-opacity="1.000000" fill-rule="evenodd"/>
		</g>
	</g>
</svg>
