<svg width="24.000000" height="24.000000" viewBox="0 0 24 24" fill="none" xmlns="http://www.w3.org/2000/svg" xmlns:xlink="http://www.w3.org/1999/xlink">
	<desc>
			Created with Pixso.
	</desc>
	<defs>
		<clipPath id="clip65_11374">
			<rect id="Bold Duotone / Settings, Fine Tuning / Widget 6" rx="5.000000" width="24.000000" height="24.000000" fill="white" fill-opacity="0"/>
		</clipPath>
	</defs>
	<g clip-path="url(#clip65_11374)">
		<path id="Vector" d="M17.5 2C15.01 2 13 4.01 13 6.5L13 9.71C13 9.86 13 9.93 13 10C13.06 10.52 13.47 10.93 13.99 10.99C14.06 11 14.13 11 14.28 11L17.5 11C19.98 11 22 8.98 22 6.5C22 4.01 19.98 2 17.5 2ZM6.5 13C4.01 13 2 15.01 2 17.5C2 19.98 4.01 22 6.5 22C8.98 22 11 19.98 11 17.5L11 14.8C11 14.16 11 13.85 10.87 13.61C10.76 13.4 10.59 13.23 10.38 13.12C10.14 13 9.83 13 9.19 13L6.5 13Z" fill="#FFFFFF" fill-opacity="1.000000" fill-rule="evenodd"/>
		<g opacity="0.500000">
			<path id="Vector" d="M6.5 2C4.01 2 2 4.01 2 6.5C2 8.98 4.01 11 6.5 11L9.5 11C9.84 11 10.02 11 10.16 10.96C10.55 10.85 10.85 10.55 10.96 10.16C11 10.02 11 9.84 11 9.5L11 6.5C11 4.01 8.98 2 6.5 2ZM13.03 13.83C13 13.97 13 14.15 13 14.5L13 17.5C13 19.98 15.01 22 17.5 22C19.98 22 22 19.98 22 17.5C22 15.01 19.98 13 17.5 13L14.5 13C14.15 13 13.97 13 13.83 13.03C13.44 13.14 13.14 13.44 13.03 13.83Z" fill="#FFFFFF" fill-opacity="1.000000" fill-rule="evenodd"/>
		</g>
	</g>
</svg>
