<svg width="24.000000" height="24.000000" viewBox="0 0 24 24" fill="none" xmlns="http://www.w3.org/2000/svg" xmlns:xlink="http://www.w3.org/1999/xlink">
	<desc>
			Created with Pixso.
	</desc>
	<defs>
		<clipPath id="clip1798_7678">
			<rect id="Outline / Time / Calendar Minimalistic" rx="5.000000" width="24.000000" height="24.000000" fill="white" fill-opacity="0"/>
		</clipPath>
	</defs>
	<g clip-path="url(#clip1798_7678)">
		<path id="Vector" d="M7 1.75C7.41 1.75 7.75 2.08 7.75 2.5L7.75 3.26C8.41 3.25 9.14 3.25 9.94 3.25L14.05 3.25C14.85 3.25 15.58 3.25 16.25 3.26L16.25 2.5C16.25 2.08 16.58 1.75 17 1.75C17.41 1.75 17.75 2.08 17.75 2.5L17.75 3.32C18 3.34 18.25 3.37 18.48 3.4C19.66 3.56 20.61 3.89 21.35 4.64C22.1 5.38 22.43 6.33 22.59 7.51C22.64 7.88 22.68 8.29 22.7 8.74C22.73 8.82 22.75 8.9 22.75 9C22.75 9.06 22.74 9.13 22.72 9.2C22.75 10 22.75 10.91 22.75 11.94L22.75 14.05C22.75 15.89 22.75 17.34 22.59 18.48C22.43 19.66 22.1 20.61 21.35 21.35C20.61 22.1 19.66 22.43 18.48 22.59C17.34 22.75 15.89 22.75 14.05 22.75L9.94 22.75C8.1 22.75 6.65 22.75 5.51 22.59C4.33 22.43 3.38 22.1 2.64 21.35C1.89 20.61 1.56 19.66 1.4 18.48C1.25 17.34 1.25 15.89 1.25 14.05L1.25 11.94C1.25 10.91 1.25 10 1.27 9.2C1.25 9.13 1.25 9.06 1.25 9C1.25 8.9 1.26 8.82 1.29 8.74C1.31 8.29 1.35 7.88 1.4 7.51C1.56 6.33 1.89 5.38 2.64 4.64C3.38 3.89 4.33 3.56 5.51 3.4C5.74 3.37 5.99 3.34 6.25 3.32L6.25 2.5C6.25 2.08 6.58 1.75 7 1.75ZM2.76 9.75C2.75 10.4 2.75 11.14 2.75 12L2.75 14C2.75 15.9 2.75 17.26 2.89 18.28C3.02 19.29 3.27 19.87 3.7 20.29C4.12 20.72 4.7 20.97 5.71 21.11C6.73 21.24 8.09 21.25 10 21.25L14 21.25C15.9 21.25 17.26 21.24 18.28 21.11C19.29 20.97 19.87 20.72 20.29 20.29C20.72 19.87 20.97 19.29 21.1 18.28C21.24 17.26 21.25 15.9 21.25 14L21.25 12C21.25 11.14 21.25 10.4 21.23 9.75L2.76 9.75ZM21.16 8.25L2.83 8.25C2.84 8.06 2.86 7.88 2.89 7.71C3.02 6.7 3.27 6.12 3.7 5.7C4.12 5.27 4.7 5.02 5.71 4.88C6.73 4.75 8.09 4.75 10 4.75L14 4.75C15.9 4.75 17.26 4.75 18.28 4.88C19.29 5.02 19.87 5.27 20.29 5.7C20.72 6.12 20.97 6.7 21.1 7.71C21.13 7.88 21.15 8.06 21.16 8.25Z" fill="currentColor" fill-opacity="1.000000" fill-rule="evenodd"/>
		<path id="Vector 726" d="M10.5 13.5L13.5 16.5M13.5 13.5L10.5 16.5" stroke="currentColor" stroke-opacity="1.000000" stroke-width="1.500000" stroke-linejoin="round"/>
	</g>
</svg>
