<svg width="24.000000" height="24.000000" viewBox="0 0 18 18" fill="none" xmlns="http://www.w3.org/2000/svg" xmlns:xlink="http://www.w3.org/1999/xlink">
	<desc>
			Created with Pixso.
	</desc>
	<defs/>
	<path id="Vector" d="M12.25 7.39C12.6 7.04 12.59 6.47 12.23 6.12C11.87 5.78 11.3 5.79 10.96 6.14L9.08 8.08L7.14 6.21C6.78 5.86 6.21 5.87 5.87 6.23C5.52 6.59 5.53 7.16 5.89 7.5L7.83 9.38L5.96 11.32C5.61 11.68 5.62 12.25 5.98 12.59C6.34 12.94 6.91 12.93 7.25 12.57L9.13 10.63L11.07 12.51C11.43 12.85 12 12.84 12.34 12.48C12.69 12.13 12.68 11.56 12.32 11.21L10.38 9.33L12.25 7.39Z" fill="currentColor" fill-opacity="1.000000" fill-rule="nonzero"/>
</svg>
