<svg width="24.000000" height="24.000000" viewBox="0 0 24 24" fill="none" xmlns="http://www.w3.org/2000/svg" xmlns:xlink="http://www.w3.org/1999/xlink">

	<defs>
		<clipPath id="clip83_20442">
			<rect id="Bold Duotone / Notes / Documents" rx="5.000000" width="24.000000" height="24.000000" fill="white" fill-opacity="0"/>
		</clipPath>
	</defs>
	<g clip-path="url(#clip83_20442)">
		<path id="Vector" d="M5.87 2.87C5 3.75 5 5.17 5 8L5 16C5 18.82 5 20.24 5.87 21.12C6.75 22 8.17 22 11 22L13 22C15.82 22 17.24 22 18.12 21.12C19 20.24 19 18.82 19 16L19 8C19 5.17 19 3.75 18.12 2.87C17.24 2 15.82 2 13 2L11 2C8.17 2 6.75 2 5.87 2.87ZM8.25 17C8.25 16.58 8.58 16.25 9 16.25L12 16.25C12.41 16.25 12.75 16.58 12.75 17C12.75 17.41 12.41 17.75 12 17.75L9 17.75C8.58 17.75 8.25 17.41 8.25 17ZM9 12.25C8.58 12.25 8.25 12.58 8.25 13C8.25 13.41 8.58 13.75 9 13.75L15 13.75C15.41 13.75 15.75 13.41 15.75 13C15.75 12.58 15.41 12.25 15 12.25L9 12.25ZM8.25 9C8.25 8.58 8.58 8.25 9 8.25L15 8.25C15.41 8.25 15.75 8.58 15.75 9C15.75 9.41 15.41 9.75 15 9.75L9 9.75C8.58 9.75 8.25 9.41 8.25 9Z" fill="currentColor" fill-opacity="1.000000" fill-rule="evenodd"/>
		<g opacity="0.500000">
			<path id="Vector" d="M5.23 4.05C5 4.94 5 6.17 5 8L5 16C5 17.82 5 19.05 5.23 19.94L5 19.92C4.02 19.82 3.36 19.61 2.87 19.12C2 18.24 2 16.82 2 14L2 10C2 7.17 2 5.75 2.87 4.87C3.36 4.38 4.02 4.17 5 4.07L5.23 4.05Z" fill="currentColor" fill-opacity="1.000000" fill-rule="nonzero"/>
		</g>
		<g opacity="0.500000">
			<path id="Vector" d="M18.76 19.94C18.99 19.05 18.99 17.82 18.99 16L18.99 8C18.99 6.17 18.99 4.94 18.76 4.05L18.99 4.07C19.97 4.17 20.63 4.38 21.12 4.87C21.99 5.75 21.99 7.17 21.99 10L21.99 14C21.99 16.82 21.99 18.24 21.12 19.12C20.63 19.61 19.97 19.82 18.99 19.92L18.76 19.94Z" fill="currentColor" fill-opacity="1.000000" fill-rule="nonzero"/>
		</g>
	</g>
</svg>
