<svg width="24.000000" height="24.000000" viewBox="0 0 24 24" fill="none" xmlns="http://www.w3.org/2000/svg" xmlns:xlink="http://www.w3.org/1999/xlink">

	<defs>
		<clipPath id="clip1798_7701">
			<rect id="Linear / Messages, Coversation / Pen 8" width="24.000000" height="24.000000" transform="translate(-0.500000 0.000000)" fill="white" fill-opacity="0"/>
		</clipPath>
	</defs>
	<g clip-path="url(#clip1798_7701)">
		<path id="Vector" d="M3.5 22L19.5 22" stroke="currentColor" stroke-opacity="1.000000" stroke-width="1.500000" stroke-linecap="round"/>
		<path id="Vector" d="M14.12 2.92C15.35 1.69 17.34 1.69 18.57 2.92C19.8 4.15 19.8 6.14 18.57 7.37L17.83 8.11L11.01 14.92C10.55 15.39 10.32 15.62 10.07 15.82C9.77 16.05 9.44 16.25 9.1 16.41C8.81 16.55 8.5 16.66 7.88 16.86L5.25 17.74L4.61 17.95C4.31 18.05 3.97 17.97 3.74 17.75C3.52 17.52 3.44 17.18 3.54 16.88L3.75 16.24L4.63 13.61C4.83 12.99 4.94 12.68 5.08 12.39C5.24 12.05 5.44 11.72 5.67 11.42C5.87 11.17 6.1 10.94 6.57 10.47L13.38 3.66L14.12 2.92ZM13.38 3.66C13.38 3.66 13.48 5.23 14.87 6.62C16.26 8.01 17.83 8.11 17.83 8.11M5.25 17.74L3.75 17.74" stroke="currentColor" stroke-opacity="1.000000" stroke-width="1.500000"/>
	</g>
</svg>
