<?xml version="1.0" encoding="UTF-8"?>
<svg version="1.1" viewBox="0 0 932 924" width="20" height="20" xmlns="http://www.w3.org/2000/svg">
<path transform="translate(0)" d="m0 0h932v924h-932z" fill="#ACB2E8"/>
<path transform="translate(0)" d="m0 0h932v924h-932zm373 79-48 1-44 2-24 3-23 3-9 2-24 5-15 5-19 10-16 10-11 8-16 16-12 18-8 13-8 16-4 12-5 25-1 8-2 7-4 37-3 50-1 57-1 83v96l1 45 2 38 4 39 3 19 4 14 5 20 5 13 9 17 9 14 14 17 6 5 5 5 15 10 16 9 16 7 19 6 29 6 32 4 24 2 34 2 48 1 236-1 2-1 28-1 31-3 30-4 27-6 22-8 19-10 13-9 13-10v-2l4-2 7-8 10-13 8-13 9-19 8-24 5-25 5-41 3-50 1-44v-48l-1-78-1-83-1-40-2-36-4-37-6-34-6-16-8-19-8-14-8-11-7-9-9-8-1-3-11-7-16-10-19-10-12-5-13-4-32-6-26-3h-10l-1-2-27-1-17-1h-14l-39-1z" fill="#FAFAFA"/>
<path transform="translate(137,507)" d="m0 0 98 1 20 3 15 5 13 9 7 8 8 7 7 8 12 14 5 5 4 3 4 8 8 8 18 22 6 5 7 8 5 3 3 6 21 10 13 3 17 1h85l14-2 15-6 16-10 3-1 1-4 8-7 3-5 5-5 11-13 9-10 7-8 4-5 1-3 3-1 9-11 14-14 7-8 10-9 1-3 17-7 17-2 12-1 29-1 65-1 61 1 1 12v47l-1 44-3 48-6 48-5 21-9 26-11 21-16 22-5 5-4 2-2 4-19 14-20 11-12 5-18 6-23 5-30 4-31 3-28 1-3 1-237 1-46-1-48-3-35-4-28-5-21-6-16-6-19-10-22-15-4-5-6-5-8-10-9-13-10-18-5-11-6-21-4-17-2-10-3-20-3-30-2-38-1-45v-58z" fill="#6473DB"/>
<path transform="translate(437,79)" d="m0 0h58v114l1 89-1 46 1 2-1 20 8-7 6-6h2v-2h2l1-4h-5v-1l10-2 7-8 29-29 6-5 1-5 5-2 8-8 9-6 6-2h8l11 4 9 9 5 6v18l-5 10-5 4-2 6-5 2-6 7-6 4-7 8-28 28-6 7-4 3h-2l-2 4-26 26-2 1-3 6-5 5-4 2-20 20-11 7-8 2-7-1-11-7-11-9-11-11-4-2-1-6-4-2-8-7-30-30-4-2-3-6-10-9-28-28-3-2v-2l-4-1-3-6-6-5-8-11-2-5v-15l3-7 9-9 10-5 4-1h7l14 8 15 12 9 11 7 7 8 7 25 25h3l3 8 8 5v3h3v-160z" fill="#6473DB"/>
</svg>
