<svg width="24" height="24" viewBox="0 0 24 24" fill="none" xmlns="http://www.w3.org/2000/svg">
<g id="Vertical container">
<g id="Vertical container_2">
<g id="Vertical container_3">
<path id="Vertical container_4" d="M17.25 9C17.25 11.8995 14.8995 14.25 12 14.25C9.10051 14.25 6.75 11.8995 6.75 9C6.75 6.10051 9.10051 3.75 12 3.75C14.8995 3.75 17.25 6.10051 17.25 9Z" fill="#C9D0FF" stroke="#6574D8" stroke-width="1.5"/>
</g>
<path id="Vector 1 (Stroke)" fill-rule="evenodd" clip-rule="evenodd" d="M10.949 17.25C11.1147 17.25 11.249 17.1157 11.249 16.95V9.3C11.249 9.13431 11.3833 9 11.549 9H12.449C12.6147 9 12.749 9.13431 12.749 9.3V16.95C12.749 17.1157 12.8833 17.25 13.049 17.25H14.699C14.8647 17.25 14.999 17.3843 14.999 17.55V18.45C14.999 18.6157 14.8647 18.75 14.699 18.75H13.049C12.8833 18.75 12.749 18.8843 12.749 19.05V20.7C12.749 20.8657 12.6147 21 12.449 21H11.549C11.3833 21 11.249 20.8657 11.249 20.7V19.05C11.249 18.8843 11.1147 18.75 10.949 18.75H9.29902C9.13334 18.75 8.99902 18.6157 8.99902 18.45V17.55C8.99902 17.3843 9.13334 17.25 9.29902 17.25H10.949Z" fill="#C9D0FF"/>
</g>
</g>
</svg>
