<svg width="25" height="24" viewBox="0 0 25 24" fill="none" xmlns="http://www.w3.org/2000/svg">
<g id="Vertical container">
<g id="Vertical container_2">
<g id="Vertical container_3">
<path id="Vertical container_4" d="M17.5 9C17.5 11.8995 15.1495 14.25 12.25 14.25C9.35051 14.25 7 11.8995 7 9C7 6.10051 9.35051 3.75 12.25 3.75C15.1495 3.75 17.5 6.10051 17.5 9Z" fill="#F9A8D4" stroke="#DB2777" stroke-width="1.5"/>
</g>
<path id="Vector 1 (Stroke)" fill-rule="evenodd" clip-rule="evenodd" d="M11.199 17.25C11.3647 17.25 11.499 17.1157 11.499 16.95V9.3C11.499 9.13431 11.6333 9 11.799 9H12.699C12.8647 9 12.999 9.13431 12.999 9.3V16.95C12.999 17.1157 13.1333 17.25 13.299 17.25H14.949C15.1147 17.25 15.249 17.3843 15.249 17.55V18.45C15.249 18.6157 15.1147 18.75 14.949 18.75H13.299C13.1333 18.75 12.999 18.8843 12.999 19.05V20.7C12.999 20.8657 12.8647 21 12.699 21H11.799C11.6333 21 11.499 20.8657 11.499 20.7V19.05C11.499 18.8843 11.3647 18.75 11.199 18.75H9.54902C9.38334 18.75 9.24902 18.6157 9.24902 18.45V17.55C9.24902 17.3843 9.38334 17.25 9.54902 17.25H11.199Z" fill="#F9A8D4"/>
</g>
</g>
</svg>
