<svg width="20.000000" height="20.000000" viewBox="0 0 20 20" fill="none" xmlns="http://www.w3.org/2000/svg" xmlns:xlink="http://www.w3.org/1999/xlink">

	<defs>
		<clipPath id="clip13_25926">
			<rect id="Bold Duotone / Messages, Coversation / Inbox In" width="20.000000" height="20.000000" transform="translate(-0.500000 0.000000)" fill="white" fill-opacity="0"/>
		</clipPath>
	</defs>
	<g clip-path="url(#clip13_25926)">
		<g opacity="0.500000">
			<path id="Vector" d="M1.16 10C1.16 6.07 1.16 4.1 2.38 2.88C3.6 1.66 5.57 1.66 9.49 1.66C13.42 1.66 15.39 1.66 16.61 2.88C17.83 4.1 17.83 6.07 17.83 10C17.83 13.92 17.83 15.89 16.61 17.11C15.39 18.33 13.42 18.33 9.49 18.33C5.57 18.33 3.6 18.33 2.38 17.11C1.16 15.89 1.16 13.92 1.16 10Z" fill="currentColor" fill-opacity="1.000000" fill-rule="nonzero"/>
		</g>
		<path id="Vector" d="M9.5 18.33C5.57 18.33 3.6 18.33 2.38 17.11C1.25 15.98 1.17 14.21 1.16 10.83L3.8 10.83C4.55 10.83 4.93 10.83 5.26 10.98C5.59 11.13 5.84 11.42 6.33 11.99L6.83 12.58C7.32 13.15 7.57 13.44 7.9 13.59C8.23 13.75 8.61 13.75 9.36 13.75L9.63 13.75C10.38 13.75 10.76 13.75 11.09 13.59C11.42 13.44 11.67 13.15 12.16 12.58L12.66 11.99C13.15 11.42 13.4 11.13 13.73 10.98C14.06 10.83 14.44 10.83 15.2 10.83L17.83 10.83C17.82 14.21 17.74 15.98 16.61 17.11C15.39 18.33 13.42 18.33 9.5 18.33Z" fill="currentColor" fill-opacity="1.000000" fill-rule="evenodd"/>
		<path id="Intersect" d="M9.94 9.44C9.82 9.55 9.66 9.62 9.5 9.62C9.33 9.62 9.17 9.55 9.05 9.44L6.3 6.69C6.06 6.44 6.06 6.05 6.3 5.8C6.55 5.56 6.94 5.56 7.19 5.8L8.87 7.49L8.87 1.66C9.07 1.66 9.28 1.66 9.49 1.66C9.71 1.66 9.92 1.66 10.12 1.66L10.12 7.49L11.8 5.8C12.05 5.56 12.44 5.56 12.69 5.8C12.93 6.05 12.93 6.44 12.69 6.69L9.94 9.44Z" fill="currentColor" fill-opacity="1.000000" fill-rule="nonzero"/>
	</g>
</svg>
