<svg width="206.000000" height="42.000000" viewBox="0 0 206 42" fill="none" xmlns="http://www.w3.org/2000/svg" xmlns:xlink="http://www.w3.org/1999/xlink">
	<desc>
			Created with Pixso.
	</desc>
	<defs/>
	<path id="Polygon 1" d="M19.51 32.68C17.73 35.77 13.26 35.77 11.48 32.68L0.62 13.94C-1.16 10.85 1.07 7 4.64 7L26.35 7C29.92 7 32.15 10.85 30.37 13.94L19.51 32.68Z" fill="#6574D8" fill-opacity="1.000000" fill-rule="nonzero"/>
	<path id="Polygon 3" d="M79.88 32.68C78.16 35.77 73.83 35.77 72.11 32.68L61.6 13.94C59.87 10.85 62.04 7 65.49 7L86.5 7C89.95 7 92.12 10.85 90.39 13.94L79.88 32.68Z" fill="#6574D8" fill-opacity="1.000000" fill-rule="nonzero"/>
	<path id="Polygon 2" d="M49.51 9.31C47.73 6.22 43.26 6.22 41.48 9.31L30.62 28.05C28.84 31.14 31.07 35 34.64 35L56.35 35C59.92 35 62.15 31.14 60.37 28.05L49.51 9.31Z" fill="#6574D8" fill-opacity="1.000000" fill-rule="nonzero"/>
	<path id="CRM School" d="M176.8 9.38Q176.06 9 175.13 9Q174.24 9 173.52 9.33Q172.89 9.62 172.48 10.09Q172.43 10.16 172.37 10.23L172.37 6.16L170.13 6.16L170.13 18L172.37 18L172.37 13.1Q172.37 12.06 172.89 11.49Q172.9 11.48 172.91 11.48Q173.03 11.34 173.18 11.24Q173.66 10.91 174.37 10.91Q175.05 10.91 175.52 11.22Q175.68 11.33 175.81 11.48Q176.34 12.04 176.34 13.1L176.34 18L178.58 18L178.58 12.8Q178.58 11.6 178.14 10.74Q177.83 10.14 177.35 9.74Q177.15 9.57 176.91 9.44Q176.86 9.41 176.8 9.38ZM204.32 18L204.32 6.16L202.08 6.16L202.08 18L204.32 18ZM151.87 17.71Q152.8 18.11 153.97 18.11Q155.2 18.11 156.1 17.65Q156.89 17.25 157.34 16.61Q157.4 16.52 157.46 16.43Q157.7 16.03 157.81 15.6Q157.92 15.2 157.92 14.76Q157.92 13.72 157.42 13.08Q157.05 12.6 156.57 12.3Q156.41 12.2 156.24 12.12Q155.55 11.8 154.47 11.48Q153.67 11.24 153.23 11.06Q152.79 10.87 152.49 10.58Q152.38 10.47 152.31 10.33Q152.2 10.11 152.2 9.83Q152.2 9.33 152.44 9.01Q152.5 8.93 152.59 8.86Q152.61 8.84 152.63 8.82Q153.01 8.52 153.64 8.52Q154.35 8.52 154.8 8.87Q154.82 8.89 154.84 8.9Q155.09 9.1 155.21 9.37Q155.32 9.59 155.33 9.85L157.8 9.85Q157.72 8.88 157.25 8.19Q156.99 7.81 156.6 7.51Q156.6 7.5 156.59 7.5Q155.51 6.67 153.8 6.67Q152.64 6.67 151.75 7.06Q151.04 7.37 150.58 7.89Q150.46 8.03 150.36 8.19Q150.27 8.32 150.19 8.47Q149.86 9.1 149.86 9.92Q149.86 10.97 150.35 11.6Q150.72 12.09 151.22 12.39Q151.36 12.47 151.52 12.55Q152.2 12.86 153.28 13.18Q154.08 13.4 154.54 13.59Q155 13.77 155.3 14.09Q155.39 14.18 155.45 14.29Q155.61 14.55 155.61 14.91Q155.61 15.24 155.47 15.51Q155.36 15.72 155.16 15.89Q154.71 16.27 153.92 16.27Q153.2 16.27 152.77 15.92Q152.74 15.89 152.71 15.87Q152.61 15.78 152.53 15.66Q152.27 15.31 152.23 14.78L149.83 14.78Q149.84 15.56 150.16 16.19Q150.26 16.38 150.39 16.56Q150.49 16.69 150.6 16.82Q151.1 17.38 151.87 17.71ZM108.08 9.87Q107.55 11.01 107.55 12.39Q107.55 13.81 108.1 14.97Q108.19 15.16 108.3 15.34Q108.7 16.03 109.25 16.56Q109.73 17.03 110.33 17.37Q110.6 17.52 110.88 17.64Q111.95 18.09 113.22 18.09Q114.75 18.09 115.95 17.47Q116.24 17.32 116.51 17.14Q117 16.81 117.39 16.38Q118.1 15.59 118.47 14.48L115.89 14.48Q115.59 15.09 115.11 15.48Q114.97 15.59 114.81 15.69Q114.77 15.71 114.73 15.73Q114.06 16.09 113.2 16.09Q112.4 16.09 111.74 15.78Q111.6 15.72 111.46 15.64Q111.24 15.5 111.04 15.33Q110.58 14.93 110.28 14.34Q109.86 13.5 109.86 12.39Q109.86 11.28 110.28 10.44Q110.57 9.88 111.01 9.49Q111.22 9.3 111.46 9.16Q111.6 9.07 111.74 9.01Q112.4 8.7 113.2 8.7Q114.07 8.7 114.75 9.06Q114.78 9.08 114.81 9.1Q114.96 9.19 115.1 9.29Q115.59 9.67 115.89 10.3L118.47 10.3Q118.12 9.26 117.46 8.49Q117.04 8.01 116.5 7.64Q116.17 7.42 115.82 7.25Q114.66 6.68 113.22 6.68Q111.97 6.68 110.9 7.13Q110.61 7.26 110.33 7.41Q109.76 7.74 109.29 8.17Q108.71 8.72 108.3 9.44Q108.18 9.65 108.08 9.87ZM124 13.64L126.47 18L129.06 18L126.39 13.47Q127.48 13.18 128.11 12.47Q128.21 12.36 128.29 12.25Q128.6 11.81 128.76 11.32Q128.93 10.82 128.93 10.25Q128.93 9.55 128.69 8.95Q128.6 8.73 128.47 8.51Q128.41 8.4 128.33 8.3Q127.89 7.67 127.11 7.28Q126.2 6.83 124.9 6.83L120.71 6.83L120.71 18L122.95 18L122.95 13.64L124 13.64ZM143.46 18L143.46 6.83L140.93 6.83L137.38 15.13L133.83 6.83L131.28 6.83L131.28 18L133.52 18L133.52 10.73L136.53 18L138.23 18L141.22 10.73L141.22 18L143.46 18ZM124.82 11.96L122.95 11.96L122.95 8.68L124.82 8.68Q125.73 8.68 126.18 9.11Q126.25 9.18 126.32 9.26Q126.63 9.66 126.63 10.3Q126.63 10.96 126.31 11.38Q126.25 11.46 126.18 11.53Q125.73 11.96 124.82 11.96ZM160.16 11.16Q159.6 12.19 159.6 13.56Q159.6 14.94 160.16 15.97Q160.49 16.58 160.97 17.03Q161.31 17.34 161.72 17.57Q161.81 17.63 161.91 17.67Q162.83 18.14 163.99 18.14Q165.42 18.14 166.43 17.49Q166.57 17.4 166.7 17.29Q167.06 17.02 167.33 16.68Q167.91 15.98 168.17 15L165.75 15Q165.56 15.56 165.17 15.86Q164.71 16.22 163.97 16.22Q163.4 16.22 162.98 15.98Q162.68 15.81 162.45 15.52Q161.89 14.83 161.89 13.56Q161.89 12.28 162.45 11.59Q162.68 11.3 162.98 11.13Q163.41 10.89 163.97 10.89Q164.6 10.89 165.04 11.18Q165.07 11.2 165.1 11.22Q165.23 11.31 165.35 11.43Q165.61 11.72 165.75 12.12L168.17 12.12Q167.88 10.98 167.18 10.23Q166.97 10 166.71 9.81Q166.64 9.76 166.57 9.71Q165.53 8.99 163.99 8.99Q162.84 8.99 161.92 9.44Q161.82 9.5 161.72 9.56Q161.31 9.79 160.98 10.1Q160.5 10.54 160.16 11.16ZM183.01 17.75Q183.9 18.14 184.96 18.14Q186.06 18.14 186.98 17.73Q187.14 17.66 187.31 17.57Q187.8 17.31 188.19 16.94Q188.64 16.52 188.97 15.96Q189.03 15.87 189.08 15.77Q189.59 14.8 189.59 13.56Q189.59 12.29 189.06 11.29Q189.02 11.23 188.99 11.16Q188.67 10.61 188.22 10.19Q187.83 9.82 187.35 9.56Q187.13 9.44 186.91 9.35Q186.05 8.99 185.03 8.99Q184.01 8.99 183.13 9.35Q182.91 9.44 182.7 9.56Q182.24 9.81 181.86 10.16Q181.39 10.59 181.06 11.16Q181.03 11.22 181 11.27Q180.47 12.27 180.47 13.56Q180.47 14.92 181.04 15.96L181.05 15.96Q181.38 16.55 181.84 16.98Q182.21 17.32 182.66 17.57Q182.83 17.67 183.01 17.75ZM193.54 17.75Q194.43 18.14 195.49 18.14Q196.59 18.14 197.51 17.73Q197.67 17.66 197.83 17.57Q198.33 17.31 198.72 16.94Q199.17 16.52 199.5 15.96Q199.55 15.87 199.61 15.77Q200.12 14.8 200.12 13.56Q200.12 12.29 199.59 11.29Q199.55 11.23 199.51 11.16Q199.2 10.61 198.75 10.19Q198.36 9.82 197.87 9.56Q197.66 9.44 197.44 9.35Q196.57 8.99 195.56 8.99Q194.53 8.99 193.66 9.35Q193.44 9.44 193.23 9.56Q192.76 9.81 192.39 10.16Q191.92 10.59 191.59 11.16Q191.56 11.22 191.53 11.27Q190.99 12.27 190.99 13.56Q190.99 14.92 191.57 15.96L191.58 15.96Q191.91 16.55 192.37 16.98Q192.74 17.32 193.19 17.57Q193.36 17.67 193.54 17.75ZM185.55 16.11Q185.26 16.19 184.96 16.19Q184.43 16.19 184 15.98Q183.65 15.81 183.37 15.51Q182.74 14.83 182.74 13.56Q182.74 12.34 183.35 11.67Q183.37 11.64 183.39 11.62Q183.69 11.3 184.07 11.13Q184.49 10.94 184.99 10.94Q185.49 10.94 185.91 11.12Q186.3 11.29 186.62 11.62Q186.66 11.66 186.69 11.7Q187.28 12.37 187.28 13.56Q187.28 14.41 186.96 15Q186.71 15.48 186.31 15.76Q186.21 15.83 186.11 15.89Q185.84 16.04 185.55 16.11ZM196.08 16.11Q195.79 16.19 195.49 16.19Q194.96 16.19 194.53 15.98Q194.18 15.81 193.9 15.51Q193.27 14.83 193.27 13.56Q193.27 12.34 193.87 11.67Q193.9 11.64 193.92 11.62Q194.22 11.3 194.59 11.13Q195.01 10.94 195.52 10.94Q196.02 10.94 196.44 11.12Q196.83 11.29 197.15 11.62Q197.19 11.66 197.22 11.7Q197.81 12.37 197.81 13.56Q197.81 14.41 197.49 15Q197.23 15.48 196.84 15.76Q196.74 15.83 196.64 15.89Q196.36 16.04 196.08 16.11Z" fill="#1F2937" fill-opacity="1.000000" fill-rule="evenodd"/>
	<path id="IT Park Tashkent" d="M141.92 34.09L144.5 37L145.98 37L142.88 33.7L145.97 30.42L144.45 30.42L141.92 33.34L141.92 28.12L140.82 28.12L140.82 37L141.92 37L141.92 34.09ZM176.11 30.53Q175.58 30.3 174.94 30.3Q174.23 30.3 173.66 30.58Q173.28 30.76 173 31.05Q172.87 31.19 172.77 31.36L172.77 28.12L171.67 28.12L171.67 37L172.77 37L172.77 33.36Q172.77 32.33 173.28 31.79Q173.41 31.64 173.58 31.54Q174.02 31.25 174.65 31.25Q175.3 31.25 175.74 31.55Q175.88 31.65 176 31.77L176 31.77Q176.49 32.29 176.49 33.27L176.49 37L177.57 37L177.57 33.12Q177.57 32.21 177.23 31.57Q176.99 31.14 176.64 30.86Q176.48 30.72 176.28 30.62Q176.2 30.57 176.11 30.53ZM180.57 34.09L183.15 37L184.64 37L181.53 33.7L184.62 30.42L183.1 30.42L180.57 33.34L180.57 28.12L179.47 28.12L179.47 37L180.57 37L180.57 34.09ZM109.01 37L109.01 28.63L107.92 28.63L107.92 37L109.01 37ZM116.14 29.52L116.14 28.63L110.47 28.63L110.47 29.52L112.77 29.52L112.77 37L113.86 37L113.86 29.52L116.14 29.52ZM126.28 32.17Q126.52 31.68 126.52 31.08Q126.52 30.42 126.24 29.91Q126.07 29.58 125.78 29.32Q125.04 28.63 123.63 28.63L120.93 28.63L120.93 37L122.02 37L122.02 33.5L123.63 33.5Q125.09 33.5 125.8 32.81Q126.11 32.52 126.28 32.17ZM155.6 29.52L155.6 28.63L149.93 28.63L149.93 29.52L152.22 29.52L152.22 37L153.31 37L153.31 29.52L155.6 29.52ZM202.47 35.2L202.47 31.32L204.18 31.32L204.18 30.42L202.47 30.42L202.47 28.76L201.37 28.76L201.37 30.42L200.52 30.42L200.52 31.32L201.37 31.32L201.37 35.2Q201.37 36.15 201.83 36.58Q202.29 37 203.2 37L204.18 37L204.18 36.07L203.38 36.07Q202.87 36.07 202.67 35.87Q202.47 35.67 202.47 35.2ZM124.97 32.21Q124.54 32.6 123.63 32.6L122.02 32.6L122.02 29.53L123.63 29.53Q124.64 29.53 125.07 30.03Q125.4 30.41 125.4 31.08Q125.4 31.68 125.11 32.05Q125.05 32.14 124.97 32.21ZM137.74 30.91Q137.49 31.16 137.32 31.49L137.32 30.42L136.23 30.42L136.23 37L137.32 37L137.32 33.42Q137.32 32.34 137.86 31.85Q138.31 31.43 139.16 31.43L139.44 31.43L139.44 30.3Q138.67 30.3 138.14 30.61Q137.92 30.74 137.74 30.91ZM198.08 30.7Q197.43 30.3 196.54 30.3Q195.98 30.3 195.5 30.49Q195.4 30.53 195.31 30.58Q194.96 30.75 194.71 31.01Q194.55 31.17 194.43 31.36L194.43 30.42L193.33 30.42L193.33 37L194.43 37L194.43 33.36Q194.43 32.33 194.94 31.79Q195.07 31.64 195.24 31.54Q195.68 31.25 196.31 31.25Q196.96 31.25 197.4 31.55Q197.54 31.65 197.66 31.77L197.66 31.77Q198.15 32.29 198.15 33.27L198.15 37L199.23 37L199.23 33.12Q199.23 31.88 198.61 31.16Q198.55 31.09 198.48 31.02Q198.3 30.84 198.08 30.7ZM127.99 31.91Q127.59 32.67 127.59 33.68Q127.59 34.67 127.99 35.45Q127.99 35.46 127.99 35.46Q128.29 36.02 128.73 36.4Q128.91 36.55 129.11 36.67Q129.33 36.81 129.57 36.9Q130.09 37.1 130.7 37.1Q131.51 37.1 132.14 36.76Q132.16 36.74 132.19 36.73Q132.78 36.38 133.1 35.87Q133.13 35.82 133.16 35.77L133.16 37L134.26 37L134.26 30.42L133.16 30.42L133.16 31.62Q133.13 31.58 133.11 31.54Q132.8 31.03 132.21 30.68Q131.57 30.31 130.71 30.31Q130.09 30.31 129.56 30.52Q129.33 30.61 129.12 30.73Q128.87 30.87 128.67 31.06Q128.26 31.41 127.99 31.91ZM157.06 31.91Q156.65 32.67 156.65 33.68Q156.65 34.67 157.06 35.45L157.06 35.46Q157.35 36.02 157.8 36.4Q157.97 36.55 158.17 36.67Q158.4 36.81 158.64 36.9Q159.16 37.1 159.76 37.1Q160.58 37.1 161.2 36.76Q161.23 36.74 161.25 36.73Q161.84 36.38 162.16 35.87Q162.19 35.82 162.22 35.77L162.22 37L163.32 37L163.32 30.42L162.22 30.42L162.22 31.62Q162.2 31.58 162.17 31.54Q161.86 31.03 161.27 30.68Q160.64 30.31 159.77 30.31Q159.16 30.31 158.62 30.52Q158.39 30.61 158.18 30.73Q157.94 30.87 157.73 31.06Q157.33 31.41 157.06 31.91ZM166.26 36.85Q166.86 37.1 167.62 37.1Q168.33 37.1 168.87 36.86Q169.38 36.63 169.68 36.23Q169.7 36.21 169.72 36.18Q169.85 35.99 169.93 35.78Q170.02 35.51 170.02 35.21Q170.01 34.66 169.74 34.3Q169.72 34.27 169.69 34.24Q169.51 34.03 169.29 33.88Q169.12 33.76 168.93 33.68Q168.48 33.49 167.77 33.3Q167.21 33.14 166.89 33.02Q166.58 32.89 166.37 32.68Q166.29 32.61 166.24 32.52Q166.15 32.36 166.15 32.15Q166.15 31.97 166.22 31.82Q166.31 31.63 166.5 31.49Q166.85 31.24 167.44 31.24Q168.07 31.24 168.45 31.55L168.45 31.55Q168.61 31.68 168.71 31.84Q168.85 32.07 168.87 32.37L169.96 32.37Q169.93 31.74 169.63 31.29Q169.47 31.05 169.24 30.86Q169.21 30.84 169.18 30.82Q168.52 30.31 167.48 30.31Q166.77 30.31 166.21 30.56Q165.66 30.8 165.36 31.22L165.36 31.22Q165.2 31.46 165.12 31.72Q165.06 31.92 165.06 32.15Q165.06 32.74 165.35 33.12Q165.37 33.15 165.39 33.17Q165.59 33.41 165.83 33.57Q166 33.68 166.18 33.76Q166.65 33.96 167.38 34.15Q168.18 34.36 168.57 34.57Q168.76 34.67 168.86 34.83Q168.95 34.99 168.95 35.21Q168.95 35.38 168.89 35.52Q168.81 35.74 168.59 35.9Q168.23 36.18 167.61 36.18Q166.94 36.18 166.52 35.87Q166.28 35.68 166.16 35.44Q166.08 35.27 166.06 35.06L164.93 35.06Q164.95 35.43 165.09 35.74Q165.18 35.94 165.31 36.12Q165.34 36.16 165.36 36.19Q165.7 36.61 166.26 36.85ZM191.74 34.12Q191.77 33.77 191.77 33.46Q191.77 32.63 191.45 31.97Q191.42 31.9 191.38 31.84Q191.21 31.52 190.97 31.27Q190.67 30.95 190.27 30.72Q190.25 30.7 190.22 30.69Q189.52 30.31 188.62 30.31Q187.69 30.31 186.96 30.7Q186.94 30.71 186.92 30.73Q186.63 30.89 186.38 31.11Q186.02 31.45 185.77 31.91Q185.37 32.67 185.37 33.7Q185.37 34.72 185.79 35.49Q186.05 35.97 186.43 36.31Q186.66 36.52 186.95 36.68Q187.05 36.74 187.16 36.8Q187.82 37.1 188.62 37.1Q189.68 37.1 190.43 36.62Q190.51 36.57 190.59 36.51Q191 36.2 191.27 35.8Q191.52 35.42 191.64 34.97L190.47 34.97Q190.37 35.26 190.19 35.48Q190.03 35.69 189.8 35.85Q189.33 36.18 188.62 36.18Q188.09 36.18 187.66 35.97Q187.38 35.84 187.15 35.63Q187.03 35.53 186.93 35.4Q186.53 34.9 186.48 34.12L191.74 34.12ZM190.37 32.16Q190.65 32.6 190.65 33.23L186.5 33.23Q186.57 32.45 186.98 31.96Q187.06 31.85 187.16 31.76Q187.39 31.55 187.66 31.43Q188.07 31.24 188.57 31.24Q189.08 31.24 189.51 31.42Q189.57 31.44 189.62 31.47Q189.86 31.59 190.05 31.76Q190.23 31.93 190.37 32.16ZM132.85 32.4Q133.16 32.95 133.16 33.7Q133.16 34.44 132.85 35Q132.64 35.4 132.31 35.67Q132.18 35.77 132.05 35.85Q131.87 35.95 131.68 36.02Q131.32 36.14 130.92 36.14Q130.51 36.14 130.14 36.01Q129.97 35.94 129.81 35.85Q129.69 35.78 129.59 35.7Q129.24 35.43 129 35Q128.7 34.44 128.7 33.68Q128.7 32.94 129 32.39Q129.24 31.96 129.59 31.69Q129.69 31.61 129.81 31.55Q129.96 31.46 130.13 31.4Q130.5 31.26 130.92 31.26Q131.32 31.26 131.67 31.38Q131.86 31.45 132.05 31.55Q132.19 31.64 132.31 31.74Q132.64 32 132.85 32.4ZM161.92 32.4Q162.22 32.95 162.22 33.7Q162.22 34.44 161.92 35Q161.7 35.4 161.37 35.67Q161.25 35.77 161.11 35.85Q160.93 35.95 160.74 36.02Q160.39 36.14 159.99 36.14Q159.57 36.14 159.21 36.01Q159.03 35.94 158.87 35.85Q158.76 35.78 158.65 35.7Q158.3 35.43 158.07 35Q157.77 34.44 157.77 33.68Q157.77 32.94 158.07 32.39Q158.3 31.96 158.65 31.69Q158.76 31.61 158.87 31.55Q159.03 31.46 159.19 31.4Q159.56 31.26 159.99 31.26Q160.38 31.26 160.73 31.38Q160.93 31.45 161.11 31.55Q161.25 31.64 161.38 31.74Q161.7 32 161.92 32.4Z" fill="#6B7280" fill-opacity="1.000000" fill-rule="evenodd"/>
</svg>
