<svg width="24.000000" height="24.000000" viewBox="0 0 24 24" fill="none" xmlns="http://www.w3.org/2000/svg" xmlns:xlink="http://www.w3.org/1999/xlink">
	<desc>
			Created with Pixso.
	</desc>
	<defs>
		<clipPath id="clip68_11069">
			<rect id="Bold Duotone / Arrows Action / Logout" rx="5.000000" width="24.000000" height="24.000000" transform="translate(-0.500000 0.000000)" fill="white" fill-opacity="0"/>
		</clipPath>
	</defs>
	<g clip-path="url(#clip68_11069)">
		<g opacity="0.600000">
			<path id="Vector" d="M13.5 2L14.5 2C17.32 2 18.74 2 19.62 2.87C20.5 3.75 20.5 5.17 20.5 8L20.5 16C20.5 18.82 20.5 20.24 19.62 21.12C18.74 22 17.32 22 14.5 22L13.5 22C10.67 22 9.25 22 8.37 21.12C7.5 20.24 7.5 18.82 7.5 16L7.5 8C7.5 5.17 7.5 3.75 8.37 2.87C9.25 2 10.67 2 13.5 2Z" fill="currentColor" fill-opacity="1.000000" fill-rule="evenodd"/>
		</g>
		<g opacity="0.400000">
			<path id="Vector" d="M7.64 4.5C7.5 5.34 7.5 6.46 7.5 8L7.5 11.25L7.5 12.75L7.5 16C7.5 17.53 7.5 18.65 7.64 19.5L7.5 19.5C5.14 19.5 3.96 19.5 3.23 18.76C2.5 18.03 2.5 16.85 2.5 14.5L2.5 9.5C2.5 7.14 2.5 5.96 3.23 5.23C3.96 4.5 5.14 4.5 7.5 4.5L7.64 4.5Z" fill="currentColor" fill-opacity="1.000000" fill-rule="evenodd"/>
		</g>
		<path id="Vector" d="M3.96 11.46C3.67 11.76 3.67 12.23 3.96 12.53L5.96 14.53C6.26 14.82 6.73 14.82 7.03 14.53C7.32 14.23 7.32 13.76 7.03 13.46L6.31 12.75L13.5 12.75C13.91 12.75 14.25 12.41 14.25 12C14.25 11.58 13.91 11.25 13.5 11.25L6.31 11.25L7.03 10.53C7.32 10.23 7.32 9.76 7.03 9.46C6.73 9.17 6.26 9.17 5.96 9.46L3.96 11.46Z" fill="currentColor" fill-opacity="1.000000" fill-rule="evenodd"/>
	</g>
</svg>
