<svg width="24.000000" height="24.000000" viewBox="0 0 24 24" fill="none" xmlns="http://www.w3.org/2000/svg" xmlns:xlink="http://www.w3.org/1999/xlink">

	<defs>
		<clipPath id="clip68_11111">
			<rect id="Bold Duotone / Essentional, UI / Menu Dots " width="24.000000" height="24.000000" transform="translate(24.000000 0.000000) rotate(90.000000)" fill="white" fill-opacity="0"/>
		</clipPath>
	</defs>
	<g clip-path="url(#clip68_11111)">
		<path id="Vector" d="M10 5C10 6.1 10.89 7 12 7C13.1 7 14 6.1 14 5C14 3.89 13.1 3 12 3C10.89 3 10 3.89 10 5ZM10 19C10 20.1 10.89 21 12 21C13.1 21 14 20.1 14 19C14 17.89 13.1 17 12 17C10.89 17 10 17.89 10 19Z" fill="currentColor" fill-opacity="1.000000" fill-rule="evenodd"/>
		<g opacity="0.500000">
			<path id="Vector" d="M12 14C10.89 14 10 13.1 10 12C10 10.89 10.89 10 12 10C13.1 10 14 10.89 14 12C14 13.1 13.1 14 12 14Z" fill="currentColor" fill-opacity="1.000000" fill-rule="nonzero"/>
		</g>
	</g>
</svg>
