<svg width="24.000000" height="24.000000" viewBox="0 0 24 24" fill="none" xmlns="http://www.w3.org/2000/svg" xmlns:xlink="http://www.w3.org/1999/xlink">
	<desc>
			Created with Pixso.
	</desc>
	<defs>
		<clipPath id="clip83_18464">
			<rect id="Bold Duotone / Mesages, Conversation /  Letter" width="24.000000" height="24.000000" transform="translate(0.000000 -0.399902)" fill="white" fill-opacity="0"/>
		</clipPath>
	</defs>
	<g clip-path="url(#clip83_18464)">
		<g opacity="0.500000">
			<path id="Vector" d="M9.8 2.6L14.2 2.6C18.34 2.6 20.42 2.6 21.71 3.91C23 5.23 23 7.35 23 11.6C23 15.84 23 17.96 21.71 19.28C20.42 20.6 18.34 20.6 14.2 20.6L9.8 20.6C5.65 20.6 3.57 20.6 2.28 19.28C1 17.96 1 15.84 1 11.6C1 7.35 1 5.23 2.28 3.91C3.57 2.6 5.65 2.6 9.8 2.6Z" fill="currentColor" fill-opacity="1.000000" fill-rule="evenodd"/>
		</g>
		<path id="Vector" d="M19.12 7.63C19.47 7.34 19.52 6.82 19.23 6.47C18.94 6.12 18.42 6.07 18.07 6.36L15.69 8.34C14.67 9.2 13.95 9.79 13.35 10.17C12.77 10.55 12.37 10.67 12 10.67C11.62 10.67 11.22 10.55 10.64 10.17C10.04 9.79 9.32 9.2 8.3 8.34L5.92 6.36C5.57 6.07 5.05 6.12 4.76 6.47C4.47 6.82 4.52 7.34 4.87 7.63L7.28 9.64C8.26 10.46 9.05 11.11 9.75 11.56C10.47 12.03 11.18 12.32 12 12.32C12.81 12.32 13.52 12.03 14.24 11.56C14.94 11.11 15.73 10.46 16.71 9.64L19.12 7.63Z" fill="currentColor" fill-opacity="1.000000" fill-rule="nonzero"/>
	</g>
</svg>
