<!-- <svg width="106" height="80" viewBox="0 0 106 80" fill="none" xmlns="http://www.w3.org/2000/svg">
<line x1="-18.7705" y1="46.0105" x2="51.9402" y2="-24.7002" stroke="#E6EEF5" stroke-width="3" stroke-linecap="round" stroke-dasharray="10 10"/>
<line x1="-11.6992" y1="53.0818" x2="59.0115" y2="-17.6289" stroke="#E6EEF5" stroke-width="3" stroke-linecap="round" stroke-dasharray="10 10"/>
<line x1="-4.62793" y1="60.1526" x2="66.0827" y2="-10.5581" stroke="#E6EEF5" stroke-width="3" stroke-linecap="round" stroke-dasharray="10 10"/>
<line x1="2.44238" y1="67.2239" x2="73.1531" y2="-3.48678" stroke="#E6EEF5" stroke-width="3" stroke-linecap="round" stroke-dasharray="10 10"/>
<line x1="9.51367" y1="74.2947" x2="80.2243" y2="3.58402" stroke="#E6EEF5" stroke-width="3" stroke-linecap="round" stroke-dasharray="10 10"/>
<line x1="16.585" y1="81.366" x2="87.2956" y2="10.6553" stroke="#E6EEF5" stroke-width="3" stroke-linecap="round" stroke-dasharray="10 10"/>
<line x1="23.6562" y1="88.4368" x2="94.3669" y2="17.7261" stroke="#E6EEF5" stroke-width="3" stroke-linecap="round" stroke-dasharray="10 10"/>
<line x1="30.7266" y1="95.5081" x2="101.437" y2="24.7974" stroke="#E6EEF5" stroke-width="3" stroke-linecap="round" stroke-dasharray="10 10"/>
<line x1="37.7979" y1="102.579" x2="108.509" y2="31.8682" stroke="#E6EEF5" stroke-width="3" stroke-linecap="round" stroke-dasharray="10 10"/>
<line x1="44.8691" y1="109.65" x2="115.58" y2="38.9395" stroke="#E6EEF5" stroke-width="3" stroke-linecap="round" stroke-dasharray="10 10"/>
<line x1="51.9404" y1="116.721" x2="122.651" y2="46.0103" stroke="#E6EEF5" stroke-width="3" stroke-linecap="round" stroke-dasharray="10 10"/>
</svg> -->

<svg width="200" height="200" viewBox="0 0 200 200" fill="none" xmlns="http://www.w3.org/2000/svg">
<line x1="-37.541" y1="92.021" x2="103.88" y2="-49.4004" stroke="#E6EEF5" stroke-width="3" stroke-linecap="round" stroke-dasharray="10 10"/>
<line x1="-23.3984" y1="106.164" x2="118.023" y2="-35.2578" stroke="#E6EEF5" stroke-width="3" stroke-linecap="round" stroke-dasharray="10 10"/>
<line x1="-9.25586" y1="120.305" x2="132.165" y2="-21.1162" stroke="#E6EEF5" stroke-width="3" stroke-linecap="round" stroke-dasharray="10 10"/>
<line x1="4.88662" y1="134.448" x2="146.306" y2="-6.97356" stroke="#E6EEF5" stroke-width="3" stroke-linecap="round" stroke-dasharray="10 10"/>
<line x1="19.0291" y1="148.589" x2="160.448" y2="7.16804" stroke="#E6EEF5" stroke-width="3" stroke-linecap="round" stroke-dasharray="10 10"/>
<line x1="33.1701" y1="162.732" x2="174.591" y2="21.3106" stroke="#E6EEF5" stroke-width="3" stroke-linecap="round" stroke-dasharray="10 10"/>
<line x1="47.3126" y1="176.873" x2="188.734" y2="35.4522" stroke="#E6EEF5" stroke-width="3" stroke-linecap="round" stroke-dasharray="10 10"/>
<line x1="61.4531" y1="191.016" x2="202.874" y2="49.5948" stroke="#E6EEF5" stroke-width="3" stroke-linecap="round" stroke-dasharray="10 10"/>
<line x1="75.5956" y1="205.157" x2="217.018" y2="63.7369" stroke="#E6EEF5" stroke-width="3" stroke-linecap="round" stroke-dasharray="10 10"/>
<line x1="89.7371" y1="219.3" x2="231.16" y2="77.879" stroke="#E6EEF5" stroke-width="3" stroke-linecap="round" stroke-dasharray="10 10"/>
<line x1="103.879" y1="233.441" x2="245.302" y2="92.0206" stroke="#E6EEF5" stroke-width="3" stroke-linecap="round" stroke-dasharray="10 10"/>
</svg>

