<svg width="20.000000" height="20.000000" viewBox="0 0 20 20" fill="none" xmlns="http://www.w3.org/2000/svg" xmlns:xlink="http://www.w3.org/1999/xlink">
	<desc>
			Created with Pixso.
	</desc>
	<defs>
		<clipPath id="clip77_23452">
			<rect id="Bold Duotone / School / Notebook Bookmark" width="20.000000" height="20.000000" fill="white" fill-opacity="0"/>
		</clipPath>
	</defs>
	<g clip-path="url(#clip77_23452)">
		<path id="Vector" d="M11.87 6.28L11.87 3.73C11.7 3.82 11.54 3.91 11.39 4C11.15 4.14 10.26 4.24 10 4.31L10 16.99C10.25 16.93 10.83 16.86 11.35 16.72C12.5 16.41 13.26 15.76 14.16 15.52C14.89 15.33 15.84 15.23 16.65 15.18C17.57 15.12 18.33 14.37 18.33 13.45L18.33 4.11C18.33 3.21 17.62 2.48 16.73 2.51C16.64 2.51 16.55 2.52 16.45 2.52L16.45 6.28C16.45 6.37 16.45 6.5 16.44 6.61C16.41 6.75 16.34 7.02 16.07 7.18C15.8 7.34 15.54 7.28 15.41 7.24C15.31 7.21 15.19 7.15 15.1 7.11L14.16 6.67L13.23 7.11C13.14 7.15 13.02 7.21 12.91 7.24C12.79 7.28 12.52 7.34 12.26 7.18C11.98 7.02 11.91 6.75 11.89 6.61C11.87 6.5 11.87 6.37 11.87 6.28L11.87 6.28ZM13.74 2.9C14.18 2.77 14.69 2.68 15.2 2.62L15.2 5.78L14.58 5.48L14.57 5.48C14.54 5.46 14.42 5.4 14.28 5.38C14.24 5.37 14.2 5.37 14.16 5.37C13.96 5.37 13.79 5.46 13.75 5.48L13.74 5.48L13.12 5.78L13.12 3.13C13.33 3.04 13.54 2.96 13.74 2.9ZM15.98 11.43C16.31 11.35 16.52 11.01 16.43 10.68C16.35 10.34 16.01 10.14 15.68 10.22L12.34 11.06C12.01 11.14 11.81 11.48 11.89 11.81C11.97 12.15 12.31 12.35 12.65 12.27L15.98 11.43Z" fill="currentColor" fill-opacity="1.000000" fill-rule="evenodd"/>
		<g opacity="0.500000">
			<path id="Vector" d="M9.99 4.34C9.72 4.29 9.11 4.21 8.56 4.06C7.44 3.76 6.7 3.13 5.83 2.9C5.09 2.71 4.13 2.61 3.31 2.56C2.4 2.5 1.66 3.24 1.66 4.16L1.66 13.45C1.66 14.37 2.42 15.12 3.34 15.18C4.15 15.23 5.1 15.33 5.83 15.52C6.23 15.63 6.84 15.88 7.39 16.13C8.23 16.5 9.1 16.79 9.99 16.99L9.99 4.34Z" fill="currentColor" fill-opacity="1.000000" fill-rule="nonzero"/>
		</g>
		<path id="Vector" d="M3.56 7.34C3.64 7.01 3.98 6.81 4.31 6.89L7.65 7.72C7.98 7.81 8.18 8.15 8.1 8.48C8.02 8.81 7.68 9.02 7.34 8.93L4.01 8.1C3.68 8.02 3.47 7.68 3.56 7.34ZM4.31 10.22C3.98 10.14 3.64 10.34 3.56 10.68C3.47 11.01 3.68 11.35 4.01 11.43L7.34 12.27C7.68 12.35 8.02 12.15 8.1 11.81C8.18 11.48 7.98 11.14 7.65 11.06L4.31 10.22Z" fill="currentColor" fill-opacity="1.000000" fill-rule="evenodd"/>
	</g>
</svg>
