<svg width="36.000000" height="36.000000" viewBox="0 0 36 36" fill="none" xmlns="http://www.w3.org/2000/svg" xmlns:xlink="http://www.w3.org/1999/xlink">
	<desc>
			Created with Pixso.
	</desc>
	<defs>
		<clipPath id="clip65_10564">
			<rect id="Bold / Notifications / Bell " rx="5.000000" width="36.000000" height="36.000000" fill="white" fill-opacity="0"/>
		</clipPath>
	</defs>
	<g clip-path="url(#clip65_10564)">
		<path id="Vector" d="M28.12 14.55L28.12 13.5C28.12 7.7 23.59 3 18 3C12.4 3 7.87 7.7 7.87 13.5L7.87 14.55C7.87 15.82 7.51 17.06 6.83 18.11L5.17 20.7C3.65 23.06 4.81 26.27 7.45 27.01C14.35 28.97 21.64 28.97 28.54 27.01C31.18 26.27 32.34 23.06 30.82 20.7L29.16 18.11C28.48 17.06 28.12 15.82 28.12 14.55ZM18 33C15.77 33 13.78 31.96 12.52 30.36C16.16 30.85 19.83 30.85 23.47 30.36C22.21 31.96 20.22 33 18 33Z" fill="#6574D8" fill-opacity="1.000000" fill-rule="evenodd"/>
	</g>
	<circle id="Ellipse 1" cx="25.000000" cy="7.000000" r="4.000000" fill="#6574D8" fill-opacity="1.000000"/>
	<circle id="Ellipse 1" cx="25.000000" cy="7.000000" r="5.000000" stroke="#FFFFFF" stroke-opacity="1.000000" stroke-width="2.000000"/>
</svg>
