<svg width="20" height="20" viewBox="0 0 20 20" fill="none" xmlns="http://www.w3.org/2000/svg">
<g id="Icon">
<path id="Vector" opacity="0.5" fill-rule="evenodd" clip-rule="evenodd" d="M2.70831 18.3335C2.70831 17.9883 2.98814 17.7085 3.33331 17.7085H16.6666C17.0118 17.7085 17.2916 17.9883 17.2916 18.3335C17.2916 18.6787 17.0118 18.9585 16.6666 18.9585H3.33331C2.98814 18.9585 2.70831 18.6787 2.70831 18.3335Z" stroke="currentColor" stroke-width="1.5" stroke-linecap="round"/>
<path id="Vector_2" opacity="0.5" d="M15.9005 6.14286C16.9246 5.11883 16.9246 3.45855 15.9005 2.43452C14.8765 1.4105 13.2162 1.4105 12.1922 2.43452L11.6007 3.02601C11.6088 3.05047 11.6172 3.07527 11.6259 3.10039C11.8427 3.72529 12.2518 4.54447 13.0213 5.31399C13.7908 6.0835 14.61 6.49255 15.2349 6.70936C15.2599 6.71803 15.2846 6.7264 15.3089 6.73446L15.9005 6.14286Z" fill="currentColor"/>
<path id="Vector_3" d="M11.6259 2.99951L11.6005 3.02498C11.6086 3.04944 11.617 3.07424 11.6257 3.09935C11.8425 3.72425 12.2515 4.54344 13.0211 5.31295C13.7906 6.08246 14.6098 6.49152 15.2347 6.70832C15.2594 6.71692 15.2839 6.72522 15.3081 6.73322L9.59984 12.4414C9.215 12.8263 9.02254 13.0187 8.81037 13.1842C8.56009 13.3794 8.28928 13.5468 8.00274 13.6834C7.75983 13.7991 7.50165 13.8852 6.98531 14.0573L4.26249 14.9649C4.00839 15.0496 3.72825 14.9835 3.53886 14.7941C3.34947 14.6047 3.28333 14.3245 3.36803 14.0704L4.27564 11.3476C4.44775 10.8313 4.53381 10.5731 4.64958 10.3302C4.78614 10.0437 4.95351 9.77286 5.14872 9.52257C5.31421 9.31041 5.50663 9.11798 5.89145 8.73316L11.6259 2.99951Z" fill="currentColor"/>
</g>
</svg>
