<svg width="24.000000" height="24.000000" viewBox="0 0 24 24" fill="none" xmlns="http://www.w3.org/2000/svg" xmlns:xlink="http://www.w3.org/1999/xlink">
	<desc>
			Created with Pixso.
	</desc>
	<defs>
		<clipPath id="clip83_20436">
			<rect id="Bold Duotone / Call / Phone " width="24.000000" height="24.000000" transform="translate(0.000000 -0.333496)" fill="white" fill-opacity="0"/>
		</clipPath>
	</defs>
	<g clip-path="url(#clip83_20436)">
		<path id="Vector" d="M16.1 13.02L16.55 12.57C17.18 11.94 18.16 11.81 18.97 12.25L20.88 13.29C22.11 13.96 22.38 15.59 21.42 16.54L20 17.96C19.63 18.32 19.19 18.58 18.67 18.63C17.48 18.74 15.03 18.68 12.13 16.98L16.1 13.02ZM10.19 7.14L10.47 6.86C11.18 6.16 11.25 5.03 10.63 4.2L9.37 2.52C8.61 1.5 7.13 1.37 6.26 2.24L4.69 3.8C4.25 4.23 3.96 4.79 4 5.41C4.06 6.55 4.45 8.63 6.15 11.18L10.19 7.14Z" fill="currentColor" fill-opacity="1.000000" fill-rule="evenodd"/>
		<g opacity="0.600000">
			<path id="Vector" d="M12.06 11.16C9.11 8.23 10.18 7.15 10.19 7.14L6.15 11.18C6.81 12.19 7.68 13.27 8.81 14.39C9.95 15.52 11.07 16.36 12.13 16.98L16.1 13.02C16.1 13.02 15.01 14.1 12.06 11.16Z" fill="currentColor" fill-opacity="1.000000" fill-rule="nonzero"/>
		</g>
	</g>
</svg>
