<svg width="34" height="35" viewBox="0 0 34 35" fill="none" xmlns="http://www.w3.org/2000/svg">
  <defs>
    <clipPath id="clip1798_7699">
      <rect width="34" height="34" fill="white" fill-opacity="0"/>
    </clipPath>
  </defs>
  <g clip-path="url(#clip1798_7699)">
    <path opacity="0.5" fill-rule="evenodd" clip-rule="evenodd" d="M2.83301 17.5001C2.83301 15.7481 2.83301 14.2259 2.87047 12.896H31.1289C31.1663 14.2259 31.1663 15.7481 31.1663 17.5001C31.1663 24.1784 31.1663 27.5175 29.0917 29.5921C27.017 31.6668 23.6779 31.6668 16.9997 31.6668C10.3214 31.6668 6.98233 31.6668 4.90767 29.5921C2.83301 27.5175 2.83301 24.1784 2.83301 17.5001Z" fill="#6574D8"/>
    <path d="M21.2503 21.0415C21.2503 20.1442 20.3125 19.5391 18.4368 18.3289C16.5355 17.1021 15.5848 16.4887 14.8759 16.9391C14.167 17.3895 14.167 18.6068 14.167 21.0415C14.167 23.4762 14.167 24.6935 14.8759 25.1439C15.5848 25.5943 16.5355 24.9809 18.4368 23.7541C20.3125 22.5439 21.2503 21.9388 21.2503 21.0415Z" fill="#6574D8"/>
    <path d="M16.9995 3.3335C19.6136 3.3335 21.7161 3.3335 23.4313 3.45792L18.5559 10.771H11.9015L16.8599 3.3335H16.9995Z" fill="#6574D8"/>
    <path d="M4.90754 5.40816C6.68173 3.63397 9.38063 3.37701 14.3017 3.3398L9.34758 10.771H2.98047C3.18907 8.27189 3.69252 6.62318 4.90754 5.40816Z" fill="#6574D8"/>
    <path d="M31.0186 10.771C30.81 8.27189 30.3066 6.62318 29.0916 5.40816C28.2453 4.56195 27.1888 4.06089 25.7811 3.7642L21.1098 10.771H31.0186Z" fill="#6574D8"/>
  </g>
</svg>