<svg width="24" height="24" viewBox="0 0 24 24" fill="none" xmlns="http://www.w3.org/2000/svg">
<g id="Bold Duotone / Arrows / Square Arrow Left Up">
<path id="Vector" opacity="0.5" d="M20.5355 3.46447C22 4.92893 22 7.28595 22 12C22 16.714 22 19.0711 20.5355 20.5355C19.0711 22 16.714 22 12 22C7.28595 22 4.92893 22 3.46447 20.5355C2 19.0711 2 16.714 2 12C2 7.28595 2 4.92893 3.46447 3.46447C4.92893 2 7.28596 2 12 2C16.714 2 19.0711 2 20.5355 3.46447Z" fill="currentColor"/>
<path id="Vector_2" d="M14.8281 8.42163C15.2423 8.42163 15.5781 8.75742 15.5781 9.17163L15.5781 13.4143C15.5781 13.8285 15.2423 14.1643 14.8281 14.1643C14.4139 14.1643 14.0781 13.8285 14.0781 13.4143L14.0781 10.9823L9.7016 15.3588C9.40871 15.6517 8.93383 15.6517 8.64094 15.3588C8.34805 15.0659 8.34805 14.591 8.64094 14.2982L13.0175 9.92163L10.5855 9.92163C10.1713 9.92163 9.83548 9.58585 9.83548 9.17163C9.83548 8.75742 10.1713 8.42163 10.5855 8.42163L14.8281 8.42163Z" fill="currentColor"/>
</g>
</svg>
