<svg width="91" height="28" viewBox="0 0 91 28" fill="none" xmlns="http://www.w3.org/2000/svg">
<path d="M19.5193 25.686C17.7329 28.7714 13.2671 28.7713 11.4807 25.6859L0.628708 6.94214C-1.15763 3.85674 1.0753 -7.08752e-07 4.64798 -3.96418e-07L26.352 1.50101e-06C29.9247 1.81334e-06 32.1576 3.85675 30.3713 6.94215L19.5193 25.686Z" fill="#6574D8"/>
<path d="M79.8896 25.686C78.1609 28.7714 73.8391 28.7713 72.1104 25.6859L61.6084 6.94214C59.8797 3.85674 62.0406 -6.24362e-07 65.498 -3.22103e-07L86.502 1.51412e-06C89.9594 1.81638e-06 92.1203 3.85675 90.3916 6.94215L79.8896 25.686Z" fill="#6574D8"/>
<path d="M49.5193 2.31405C47.7329 -0.771352 43.2671 -0.771344 41.4807 2.31405L30.6287 21.0579C28.8424 24.1433 31.0753 28 34.648 28L56.352 28C59.9247 28 62.1576 24.1432 60.3713 21.0579L49.5193 2.31405Z" fill="#6574D8"/>
</svg>
