<svg width="24" height="25" viewBox="0 0 24 25" fill="none" xmlns="http://www.w3.org/2000/svg">
<g id="Bold Duotone / Users / User Id">
<path id="Vector" opacity="0.5" d="M14 4.5H10C6.22876 4.5 4.34315 4.5 3.17157 5.67157C2 6.84315 2 8.72876 2 12.5C2 16.2712 2 18.1569 3.17157 19.3284C4.34315 20.5 6.22876 20.5 10 20.5H14C17.7712 20.5 19.6569 20.5 20.8284 19.3284C22 18.1569 22 16.2712 22 12.5C22 8.72876 22 6.84315 20.8284 5.67157C19.6569 4.5 17.7712 4.5 14 4.5Z" fill="currentColor"/>
<g id="Vector_2">
<path d="M13.25 9.5C13.25 9.08579 13.5858 8.75 14 8.75H19C19.4142 8.75 19.75 9.08579 19.75 9.5C19.75 9.91421 19.4142 10.25 19 10.25H14C13.5858 10.25 13.25 9.91421 13.25 9.5Z" fill="currentColor"/>
<path d="M14.25 12.5C14.25 12.0858 14.5858 11.75 15 11.75H19C19.4142 11.75 19.75 12.0858 19.75 12.5C19.75 12.9142 19.4142 13.25 19 13.25H15C14.5858 13.25 14.25 12.9142 14.25 12.5Z" fill="currentColor"/>
<path d="M15.25 15.5C15.25 15.0858 15.5858 14.75 16 14.75H19C19.4142 14.75 19.75 15.0858 19.75 15.5C19.75 15.9142 19.4142 16.25 19 16.25H16C15.5858 16.25 15.25 15.9142 15.25 15.5Z" fill="currentColor"/>
<path d="M9 11.5C10.1046 11.5 11 10.6046 11 9.5C11 8.39543 10.1046 7.5 9 7.5C7.89543 7.5 7 8.39543 7 9.5C7 10.6046 7.89543 11.5 9 11.5Z" fill="currentColor"/>
<path d="M9 17.5C13 17.5 13 16.6046 13 15.5C13 14.3954 11.2091 13.5 9 13.5C6.79086 13.5 5 14.3954 5 15.5C5 16.6046 5 17.5 9 17.5Z" fill="currentColor"/>
</g>
</g>
</svg>
