<svg width="20" height="20" viewBox="0 0 20 20" fill="none" xmlns="http://www.w3.org/2000/svg">
<g id="Frame 74">
<path id="Youtube" fill-rule="evenodd" clip-rule="evenodd" d="M17.8252 3.76132C18.6819 3.99203 19.3574 4.66738 19.5879 5.52416C20.0164 7.0891 19.9999 10.3511 19.9999 10.3511C19.9999 10.3511 19.9999 13.5965 19.5881 15.1616C19.3574 16.0182 18.682 16.6937 17.8252 16.9243C16.2602 17.3362 9.99996 17.3362 9.99996 17.3362C9.99996 17.3362 3.75609 17.3362 2.17467 16.9079C1.3179 16.6772 0.642545 16.0017 0.411833 15.1451C0 13.5965 0 10.3346 0 10.3346C0 10.3346 0 7.0891 0.411833 5.52416C0.642392 4.66754 1.33438 3.97555 2.17452 3.74499C3.73961 3.33301 9.9998 3.33301 9.9998 3.33301C9.9998 3.33301 16.2602 3.33301 17.8252 3.76132ZM13.2126 10.3347L8.00675 13.3331V7.33637L13.2126 10.3347Z" fill="currentColor"/>
</g>
</svg>
