<svg width="36" height="36" viewBox="0 0 36 36" fill="none" xmlns="http://www.w3.org/2000/svg">
<path d="M27 18C27 22.9706 22.9706 27 18 27C13.0294 27 9 22.9706 9 18C9 13.0294 13.0294 9 18 9C22.9706 9 27 13.0294 27 18Z" fill="#6574D8"/>
<path fill-rule="evenodd" clip-rule="evenodd" d="M18 1.875C18.6213 1.875 19.125 2.37868 19.125 3V4.5C19.125 5.12132 18.6213 5.625 18 5.625C17.3787 5.625 16.875 5.12132 16.875 4.5V3C16.875 2.37868 17.3787 1.875 18 1.875ZM1.875 18C1.875 17.3787 2.37868 16.875 3 16.875H4.5C5.12132 16.875 5.625 17.3787 5.625 18C5.625 18.6213 5.12132 19.125 4.5 19.125H3C2.37868 19.125 1.875 18.6213 1.875 18ZM30.375 18C30.375 17.3787 30.8787 16.875 31.5 16.875H33C33.6213 16.875 34.125 17.3787 34.125 18C34.125 18.6213 33.6213 19.125 33 19.125H31.5C30.8787 19.125 30.375 18.6213 30.375 18ZM18 30.375C18.6213 30.375 19.125 30.8787 19.125 31.5V33C19.125 33.6213 18.6213 34.125 18 34.125C17.3787 34.125 16.875 33.6213 16.875 33V31.5C16.875 30.8787 17.3787 30.375 18 30.375Z" fill="#6574D8"/>
<g opacity="0.5">
<path d="M6.59757 6.59757C7.03691 6.15823 7.74922 6.15823 8.18856 6.59757L8.77782 7.18683C9.21716 7.62617 9.21716 8.33848 8.77782 8.77782C8.33848 9.21716 7.62617 9.21716 7.18683 8.77782L6.59757 8.18856C6.15823 7.74922 6.15823 7.03691 6.59757 6.59757Z" fill="#6574D8"/>
<path d="M29.4014 6.59796C29.8407 7.0373 29.8407 7.74961 29.4014 8.18895L28.8121 8.77821C28.3728 9.21755 27.6604 9.21755 27.2211 8.7782C26.7818 8.33886 26.7818 7.62655 27.2211 7.18721L27.8104 6.59796C28.2497 6.15862 28.962 6.15862 29.4014 6.59796Z" fill="#6574D8"/>
<path d="M27.2211 27.2211C27.6604 26.7818 28.3728 26.7818 28.8121 27.2211L29.4014 27.8104C29.8407 28.2497 29.8407 28.962 29.4014 29.4014C28.962 29.8407 28.2497 29.8407 27.8104 29.4014L27.2211 28.8121C26.7818 28.3728 26.7818 27.6604 27.2211 27.2211Z" fill="#6574D8"/>
<path d="M8.77782 27.2215C9.21716 27.6608 9.21716 28.3731 8.77782 28.8125L8.18856 29.4017C7.74922 29.8411 7.03691 29.8411 6.59757 29.4017C6.15823 28.9624 6.15823 28.2501 6.59757 27.8108L7.18683 27.2215C7.62617 26.7822 8.33848 26.7822 8.77782 27.2215Z" fill="#6574D8"/>
</g>
</svg>
