<svg width="73" height="73" viewBox="0 0 73 73" fill="none" xmlns="http://www.w3.org/2000/svg">
<g id="Bold Duotone / Essentional, UI / Add Circle">
<path id="Vector" opacity="0.5" d="M66.875 36.5C66.875 53.0685 53.4435 66.5 36.875 66.5C20.3065 66.5 6.875 53.0685 6.875 36.5C6.875 19.9315 20.3065 6.5 36.875 6.5C53.4435 6.5 66.875 19.9315 66.875 36.5Z" fill="currentColor"/>
<path id="Vector_2" d="M39.125 27.5C39.125 26.2574 38.1176 25.25 36.875 25.25C35.6324 25.25 34.625 26.2574 34.625 27.5L34.625 34.2501H27.875C26.6324 34.2501 25.625 35.2574 25.625 36.5001C25.625 37.7427 26.6324 38.7501 27.875 38.7501H34.625V45.5C34.625 46.7426 35.6324 47.75 36.875 47.75C38.1176 47.75 39.125 46.7426 39.125 45.5L39.125 38.7501H45.875C47.1176 38.7501 48.125 37.7427 48.125 36.5001C48.125 35.2574 47.1176 34.2501 45.875 34.2501H39.125V27.5Z" fill="currentColor"/>
</g>
</svg>
