<svg width="24" height="25" viewBox="0 0 24 25" fill="none" xmlns="http://www.w3.org/2000/svg">
<g id="Bold Duotone / Messages, Coversation /  Chat Round Unread">
<path id="Vector" d="M22 5.5C22 7.15685 20.6569 8.5 19 8.5C17.3431 8.5 16 7.15685 16 5.5C16 3.84315 17.3431 2.5 19 2.5C20.6569 2.5 22 3.84315 22 5.5Z" fill="currentColor"/>
<path id="Vector_2" opacity="0.5" d="M15.2347 3.03476C14.2201 2.6881 13.132 2.5 12 2.5C6.47715 2.5 2 6.97715 2 12.5C2 14.0997 2.37562 15.6116 3.04346 16.9525C3.22094 17.3088 3.28001 17.7161 3.17712 18.1006L2.58151 20.3267C2.32295 21.293 3.20701 22.177 4.17335 21.9185L6.39938 21.3229C6.78393 21.22 7.19121 21.2791 7.54753 21.4565C8.88836 22.1244 10.4003 22.5 12 22.5C17.5228 22.5 22 18.0228 22 12.5C22 11.368 21.8119 10.2799 21.4652 9.26526C20.7572 9.72981 19.9101 10 19 10C16.5147 10 14.5 7.98528 14.5 5.5C14.5 4.58987 14.7702 3.74284 15.2347 3.03476Z" fill="currentColor"/>
</g>
</svg>
