<svg width="24" height="25" viewBox="0 0 24 25" fill="none" xmlns="http://www.w3.org/2000/svg">
<g id="Bold / Notes / Clipboard Remove">
<g id="Vector">
<path d="M9.5 2.5C8.67157 2.5 8 3.17157 8 4V5C8 5.82843 8.67157 6.5 9.5 6.5H14.5C15.3284 6.5 16 5.82843 16 5V4C16 3.17157 15.3284 2.5 14.5 2.5H9.5Z" fill="currentColor"/>
<path fill-rule="evenodd" clip-rule="evenodd" d="M3.87868 5.37694C4.44798 4.80764 5.24209 4.60719 6.5 4.53662V5C6.5 6.65685 7.84315 8 9.5 8H14.5C16.1569 8 17.5 6.65685 17.5 5V4.53662C18.7579 4.60719 19.552 4.80764 20.1213 5.37694C21 6.25562 21 7.66983 21 10.4983V16.4983C21 19.3267 21 20.7409 20.1213 21.6196C19.2426 22.4983 17.8284 22.4983 15 22.4983H9C6.17157 22.4983 4.75736 22.4983 3.87868 21.6196C3 20.7409 3 19.3267 3 16.4983V10.4983C3 7.66983 3 6.25562 3.87868 5.37694ZM12 13.9394L10.0303 11.9697C9.73744 11.6768 9.26256 11.6768 8.96967 11.9697C8.67678 12.2626 8.67678 12.7374 8.96967 13.0303L10.9394 15L8.96969 16.9697C8.6768 17.2626 8.6768 17.7374 8.96969 18.0303C9.26258 18.3232 9.73746 18.3232 10.0304 18.0303L12 16.0607L13.9696 18.0303C14.2625 18.3232 14.7374 18.3232 15.0303 18.0303C15.3232 17.7374 15.3232 17.2625 15.0303 16.9697L13.0607 15L15.0303 13.0303C15.3232 12.7375 15.3232 12.2626 15.0303 11.9697C14.7374 11.6768 14.2626 11.6768 13.9697 11.9697L12 13.9394Z" fill="currentColor"/>
</g>
</g>
</svg>
