<svg width="24" height="25" viewBox="0 0 24 25" fill="none" xmlns="http://www.w3.org/2000/svg">
<g id="Bold Duotone / Notes / Clipboard Text">
<path id="Vector" opacity="0.5" d="M21 16.4983V10.4983C21 7.66983 21 6.25562 20.1213 5.37694C19.3529 4.60856 18.175 4.51211 16 4.5H8C5.82497 4.51211 4.64706 4.60856 3.87868 5.37694C3 6.25562 3 7.66983 3 10.4983V16.4983C3 19.3267 3 20.7409 3.87868 21.6196C4.75736 22.4983 6.17157 22.4983 9 22.4983H15C17.8284 22.4983 19.2426 22.4983 20.1213 21.6196C21 20.7409 21 19.3267 21 16.4983Z" fill="currentColor"/>
<path id="Vector_2" d="M8 4C8 3.17157 8.67157 2.5 9.5 2.5H14.5C15.3284 2.5 16 3.17157 16 4V5C16 5.82843 15.3284 6.5 14.5 6.5H9.5C8.67157 6.5 8 5.82843 8 5V4Z" fill="currentColor"/>
<path id="Vector_3" fill-rule="evenodd" clip-rule="evenodd" d="M6.25 15C6.25 14.5858 6.58579 14.25 7 14.25H15C15.4142 14.25 15.75 14.5858 15.75 15C15.75 15.4142 15.4142 15.75 15 15.75H7C6.58579 15.75 6.25 15.4142 6.25 15ZM6.25 18.5C6.25 18.0858 6.58579 17.75 7 17.75H12.5C12.9142 17.75 13.25 18.0858 13.25 18.5C13.25 18.9142 12.9142 19.25 12.5 19.25H7C6.58579 19.25 6.25 18.9142 6.25 18.5Z" fill="currentColor"/>
</g>
</svg>
