<svg width="24.000000" height="24.000000" viewBox="0 0 24 24" fill="none" xmlns="http://www.w3.org/2000/svg" xmlns:xlink="http://www.w3.org/1999/xlink">

	<defs>
		<clipPath id="clip2833_11182">
			<rect id="Bold Duotone / School / Diploma" width="24.000000" height="24.000000" fill="white" fill-opacity="0"/>
		</clipPath>
	</defs>
	<g clip-path="url(#clip2833_11182)">
		<g opacity="0.500000">
			<path id="Vector" d="M2 8L2 12C2 14.82 2 16.24 2.87 17.12C3.35 17.59 3.98 17.81 4.91 17.91C4.99 17.81 5.06 17.73 5.11 17.68C5.22 17.55 5.37 17.4 5.52 17.26L7.01 15.79L7.56 15.23C7.92 13.11 9.77 11.5 12 11.5C14.22 11.5 16.07 13.11 16.43 15.23L16.98 15.79L18.48 17.26C18.62 17.4 18.77 17.55 18.88 17.68C18.93 17.73 19 17.81 19.08 17.91C20.01 17.81 20.64 17.59 21.12 17.12C22 16.24 22 14.82 22 12L22 8C22 5.17 22 3.75 21.12 2.87C20.24 2 18.82 2 16 2L8 2C5.17 2 3.75 2 2.87 2.87C2 3.75 2 5.17 2 8Z" fill="currentColor" fill-opacity="1.000000" fill-rule="nonzero"/>
		</g>
		<path id="Vector" d="M9 5.25C8.58 5.25 8.25 5.58 8.25 6C8.25 6.41 8.58 6.75 9 6.75L15 6.75C15.41 6.75 15.75 6.41 15.75 6C15.75 5.58 15.41 5.25 15 5.25L9 5.25ZM6.25 9.5C6.25 9.08 6.58 8.75 7 8.75L17 8.75C17.41 8.75 17.75 9.08 17.75 9.5C17.75 9.91 17.41 10.25 17 10.25L7 10.25C6.58 10.25 6.25 9.91 6.25 9.5Z" fill="currentColor" fill-opacity="1.000000" fill-rule="evenodd"/>
		<path id="Vector" d="M9 15.91C9 15.94 9 15.97 9 16C9 17.65 10.34 19 12 19C13.65 19 15 17.65 15 16C15 15.97 14.99 15.94 14.99 15.91C14.95 14.29 13.62 13 12 13C10.44 13 9.16 14.18 9.01 15.69C9 15.76 9 15.84 9 15.91ZM7.67 17.24L6.59 18.31C6.27 18.63 6.1 18.79 6.05 18.92C5.92 19.23 6.03 19.57 6.31 19.74C6.43 19.81 6.65 19.83 7.09 19.87C7.34 19.9 7.46 19.91 7.57 19.95C7.8 20.04 7.98 20.21 8.07 20.44C8.11 20.55 8.12 20.67 8.14 20.91C8.19 21.35 8.21 21.57 8.28 21.69C8.45 21.96 8.8 22.07 9.11 21.94C9.25 21.89 9.41 21.73 9.73 21.41L10.81 20.34C9.3 19.93 8.1 18.75 7.67 17.24ZM14.26 21.41L13.18 20.34C14.69 19.93 15.89 18.75 16.32 17.24L17.4 18.31C17.72 18.63 17.89 18.79 17.94 18.92C18.07 19.23 17.96 19.57 17.68 19.74C17.56 19.81 17.34 19.83 16.9 19.87C16.65 19.9 16.53 19.91 16.42 19.95C16.19 20.04 16.01 20.21 15.92 20.44C15.88 20.55 15.87 20.67 15.85 20.91C15.8 21.35 15.78 21.57 15.71 21.69C15.54 21.96 15.19 22.07 14.88 21.94C14.74 21.89 14.58 21.73 14.26 21.41Z" fill="currentColor" fill-opacity="1.000000" fill-rule="evenodd"/>
	</g>
</svg>
