<svg width="18.000000" height="18.000000" viewBox="0 0 18 18" fill="none" xmlns="http://www.w3.org/2000/svg" xmlns:xlink="http://www.w3.org/1999/xlink">

	<defs>
		<clipPath id="clip73_13257">
			<rect id="Bold Duotone / Arrows Action / Exit" rx="5.000000" width="18.000000" height="18.000000" fill="white" fill-opacity="0"/>
		</clipPath>
	</defs>
	<g clip-path="url(#clip73_13257)">
		<g opacity="0.500000">
			<path id="Vector" d="M6.78 3.37C6.75 3.8 6.75 4.35 6.75 5.04L6.75 12.95C6.75 13.64 6.75 14.19 6.78 14.62L6 14.62C4.23 14.62 3.34 14.62 2.79 14.07C2.25 13.52 2.25 12.64 2.25 10.87L2.25 7.12C2.25 5.35 2.25 4.47 2.79 3.92C3.34 3.37 4.23 3.37 6 3.37L6.78 3.37Z" fill="currentColor" fill-opacity="1.000000" fill-rule="nonzero"/>
		</g>
		<path id="Vector" d="M7.28 1.8C6.75 2.27 6.75 3.13 6.75 4.85L6.75 13.14C6.75 14.86 6.75 15.72 7.28 16.19C7.81 16.66 8.62 16.52 10.24 16.23L11.98 15.93C13.78 15.62 14.68 15.46 15.21 14.8C15.75 14.14 15.75 13.19 15.75 11.28L15.75 6.71C15.75 4.8 15.75 3.85 15.21 3.19C14.68 2.53 13.78 2.37 11.98 2.06L10.24 1.76C8.62 1.47 7.81 1.33 7.28 1.8ZM9.56 8.21C9.56 7.89 9.31 7.62 9 7.62C8.68 7.62 8.43 7.89 8.43 8.21L8.43 9.78C8.43 10.11 8.68 10.37 9 10.37C9.31 10.37 9.56 10.11 9.56 9.78L9.56 8.21Z" fill="currentColor" fill-opacity="1.000000" fill-rule="evenodd"/>
	</g>
</svg>
