<svg width="34.000000" height="34.000000" viewBox="0 0 34 34" fill="none" xmlns="http://www.w3.org/2000/svg" xmlns:xlink="http://www.w3.org/1999/xlink">

	<defs>
		<clipPath id="clip3013_20585">
			<rect id="Outline / Video, Audio, Sound / Gallery Add" width="34.000000" height="34.000000" fill="white" fill-opacity="0"/>
		</clipPath>
	</defs>
	<g clip-path="url(#clip3013_20585)">
		<path id="Vector" d="M16.91 1.77L17 1.77C17.58 1.77 18.06 2.24 18.06 2.83C18.06 3.42 17.58 3.89 17 3.89C13.63 3.89 11.21 3.89 9.36 4.14C7.55 4.38 6.46 4.85 5.65 5.65C4.85 6.46 4.38 7.55 4.14 9.36C3.94 10.89 3.9 12.82 3.89 15.36L4.61 14.73C6.32 13.23 8.9 13.32 10.51 14.93L16.59 21.01C17.2 21.61 18.15 21.7 18.86 21.2L19.28 20.91C21.31 19.48 24.05 19.65 25.89 21.3L29.82 24.84C29.83 24.77 29.84 24.7 29.85 24.63C30.1 22.78 30.1 20.36 30.1 17C30.1 16.41 30.58 15.93 31.16 15.93C31.75 15.93 32.22 16.41 32.22 17L32.22 17.08C32.22 20.35 32.22 22.91 31.96 24.91C31.68 26.96 31.11 28.57 29.84 29.84C28.57 31.11 26.96 31.68 24.91 31.96C22.91 32.22 20.35 32.22 17.08 32.22L16.91 32.22C13.64 32.22 11.08 32.22 9.08 31.96C7.03 31.68 5.42 31.11 4.15 29.84C2.88 28.57 2.31 26.96 2.04 24.91C1.77 22.91 1.77 20.35 1.77 17.08L1.77 16.91C1.77 13.64 1.77 11.08 2.04 9.08C2.31 7.03 2.88 5.42 4.15 4.15C5.42 2.88 7.03 2.31 9.08 2.03C11.08 1.77 13.64 1.77 16.91 1.77ZM27.27 2.83C27.27 2.24 26.79 1.77 26.2 1.77C25.62 1.77 25.14 2.24 25.14 2.83L25.14 6.72L21.25 6.72C20.66 6.72 20.18 7.2 20.18 7.79C20.18 8.37 20.66 8.85 21.25 8.85L25.14 8.85L25.14 12.75C25.14 13.33 25.62 13.81 26.2 13.81C26.79 13.81 27.27 13.33 27.27 12.75L27.27 8.85L31.16 8.85C31.75 8.85 32.22 8.37 32.22 7.79C32.22 7.2 31.75 6.72 31.16 6.72L27.27 6.72L27.27 2.83ZM5.65 28.34C4.85 27.53 4.38 26.44 4.14 24.63C3.92 23.01 3.9 20.95 3.89 18.18L6.01 16.33C6.88 15.57 8.19 15.61 9.01 16.43L15.09 22.51C16.42 23.85 18.53 24.03 20.08 22.94L20.5 22.64C21.72 21.79 23.36 21.89 24.47 22.88L29.03 26.99C29.08 27.04 29.14 27.08 29.19 27.11C28.96 27.59 28.68 27.99 28.34 28.34C27.53 29.14 26.44 29.61 24.63 29.85C22.78 30.1 20.36 30.1 17 30.1C13.63 30.1 11.21 30.1 9.36 29.85C7.55 29.61 6.46 29.14 5.65 28.34Z" fill="currentColor" fill-opacity="1.000000" fill-rule="evenodd"/>
	</g>
</svg>
