<svg width="24.000000" height="24.000000" viewBox="0 0 24 24" fill="none" xmlns="http://www.w3.org/2000/svg" xmlns:xlink="http://www.w3.org/1999/xlink">

	<defs>
		<clipPath id="clip2833_11393">
			<rect id="Bold Duotone / Users / Users Group Two Rounded" width="24.000000" height="24.000000" fill="white" fill-opacity="0"/>
		</clipPath>
	</defs>
	<g clip-path="url(#clip2833_11393)">
		<path id="Vector" d="M15.5 7.5C15.5 9.43 13.93 11 12 11C10.06 11 8.5 9.43 8.5 7.5C8.5 5.56 10.06 4 12 4C13.93 4 15.5 5.56 15.5 7.5Z" fill="currentColor" fill-opacity="1.000000" fill-rule="nonzero"/>
		<g opacity="0.500000">
			<path id="Vector" d="M19.5 7.5C19.5 8.88 18.38 10 17 10C15.61 10 14.5 8.88 14.5 7.5C14.5 6.11 15.61 5 17 5C18.38 5 19.5 6.11 19.5 7.5Z" fill="currentColor" fill-opacity="1.000000" fill-rule="nonzero"/>
		</g>
		<g opacity="0.500000">
			<path id="Vector" d="M4.5 7.5C4.5 8.88 5.61 10 7 10C8.38 10 9.5 8.88 9.5 7.5C9.5 6.11 8.38 5 7 5C5.61 5 4.5 6.11 4.5 7.5Z" fill="currentColor" fill-opacity="1.000000" fill-rule="nonzero"/>
		</g>
		<path id="Vector" d="M18 16.5C18 18.43 15.31 20 12 20C8.68 20 6 18.43 6 16.5C6 14.56 8.68 13 12 13C15.31 13 18 14.56 18 16.5Z" fill="currentColor" fill-opacity="1.000000" fill-rule="nonzero"/>
		<g opacity="0.500000">
			<path id="Vector" d="M22 16.5C22 17.88 20.2 19 18 19C15.79 19 14 17.88 14 16.5C14 15.11 15.79 14 18 14C20.2 14 22 15.11 22 16.5Z" fill="currentColor" fill-opacity="1.000000" fill-rule="nonzero"/>
		</g>
		<g opacity="0.500000">
			<path id="Vector" d="M2 16.5C2 17.88 3.79 19 6 19C8.2 19 10 17.88 10 16.5C10 15.11 8.2 14 6 14C3.79 14 2 15.11 2 16.5Z" fill="currentColor" fill-opacity="1.000000" fill-rule="nonzero"/>
		</g>
	</g>
</svg>
