<svg width="20" height="20" viewBox="0 0 20 20" fill="none" xmlns="http://www.w3.org/2000/svg">
<path opacity="0.5" d="M1.66675 10.0001C1.66675 6.07171 1.66675 4.10752 2.88714 2.88714C4.10752 1.66675 6.07171 1.66675 10.0001 1.66675C13.9285 1.66675 15.8926 1.66675 17.113 2.88714C18.3334 4.10752 18.3334 6.07171 18.3334 10.0001C18.3334 13.9285 18.3334 15.8926 17.113 17.113C15.8926 18.3334 13.9285 18.3334 10.0001 18.3334C6.07171 18.3334 4.10752 18.3334 2.88714 17.113C1.66675 15.8926 1.66675 13.9285 1.66675 10.0001Z" fill="#6574D8"/>
<path d="M8.78592 6.26429C9.02397 6.01433 9.01433 5.61872 8.76437 5.38067C8.51441 5.14261 8.1188 5.15226 7.88075 5.40222L5.95238 7.427L5.45259 6.90222C5.21453 6.65226 4.81892 6.64261 4.56897 6.88067C4.31901 7.11872 4.30936 7.51433 4.54742 7.76429L5.4998 8.76429C5.61776 8.88815 5.78133 8.95825 5.95238 8.95825C6.12343 8.95825 6.287 8.88815 6.40497 8.76429L8.78592 6.26429Z" fill="#6574D8"/>
<path d="M10.8333 6.87492C10.4882 6.87492 10.2083 7.15474 10.2083 7.49992C10.2083 7.8451 10.4882 8.12492 10.8333 8.12492H15C15.3452 8.12492 15.625 7.8451 15.625 7.49992C15.625 7.15474 15.3452 6.87492 15 6.87492H10.8333Z" fill="#6574D8"/>
<path d="M8.78592 12.0976C9.02397 11.8477 9.01433 11.4521 8.76437 11.214C8.51441 10.9759 8.1188 10.9856 7.88075 11.2356L5.95238 13.2603L5.45259 12.7356C5.21453 12.4856 4.81892 12.4759 4.56897 12.714C4.31901 12.9521 4.30936 13.3477 4.54742 13.5976L5.4998 14.5976C5.61776 14.7215 5.78133 14.7916 5.95238 14.7916C6.12343 14.7916 6.287 14.7215 6.40497 14.5976L8.78592 12.0976Z" fill="#6574D8"/>
<path d="M10.8333 12.7083C10.4882 12.7083 10.2083 12.9881 10.2083 13.3333C10.2083 13.6784 10.4882 13.9583 10.8333 13.9583H15C15.3452 13.9583 15.625 13.6784 15.625 13.3333C15.625 12.9881 15.3452 12.7083 15 12.7083H10.8333Z" fill="#6574D8"/>
</svg>
