<svg width="20" height="20" viewBox="0 0 20 20" fill="none" xmlns="http://www.w3.org/2000/svg">
<path opacity="0.5" d="M2.0835 5.41659C2.0835 3.84524 2.0835 3.05956 2.57165 2.57141C3.05981 2.08325 3.84548 2.08325 5.41683 2.08325C6.98818 2.08325 7.77385 2.08325 8.26201 2.57141C8.75016 3.05956 8.75016 3.84524 8.75016 5.41659C8.75016 6.98793 8.75016 7.77361 8.26201 8.26176C7.77385 8.74992 6.98818 8.74992 5.41683 8.74992C3.84548 8.74992 3.05981 8.74992 2.57165 8.26176C2.0835 7.77361 2.0835 6.98793 2.0835 5.41659Z" stroke="#6574D8" stroke-width="1.5"/>
<path opacity="0.5" d="M11.25 14.5833C11.25 13.012 11.25 12.2263 11.7382 11.7382C12.2263 11.25 13.012 11.25 14.5833 11.25C16.1547 11.25 16.9404 11.25 17.4285 11.7382C17.9167 12.2263 17.9167 13.012 17.9167 14.5833C17.9167 16.1547 17.9167 16.9404 17.4285 17.4285C16.9404 17.9167 16.1547 17.9167 14.5833 17.9167C13.012 17.9167 12.2263 17.9167 11.7382 17.4285C11.25 16.9404 11.25 16.1547 11.25 14.5833Z" stroke="#6574D8" stroke-width="1.5"/>
<path d="M2.0835 14.5833C2.0835 13.012 2.0835 12.2263 2.57165 11.7382C3.05981 11.25 3.84548 11.25 5.41683 11.25C6.98818 11.25 7.77385 11.25 8.26201 11.7382C8.75016 12.2263 8.75016 13.012 8.75016 14.5833C8.75016 16.1547 8.75016 16.9404 8.26201 17.4285C7.77385 17.9167 6.98818 17.9167 5.41683 17.9167C3.84548 17.9167 3.05981 17.9167 2.57165 17.4285C2.0835 16.9404 2.0835 16.1547 2.0835 14.5833Z" stroke="#6574D8" stroke-width="1.5"/>
<path d="M11.25 5.41659C11.25 3.84524 11.25 3.05956 11.7382 2.57141C12.2263 2.08325 13.012 2.08325 14.5833 2.08325C16.1547 2.08325 16.9404 2.08325 17.4285 2.57141C17.9167 3.05956 17.9167 3.84524 17.9167 5.41659C17.9167 6.98793 17.9167 7.77361 17.4285 8.26176C16.9404 8.74992 16.1547 8.74992 14.5833 8.74992C13.012 8.74992 12.2263 8.74992 11.7382 8.26176C11.25 7.77361 11.25 6.98793 11.25 5.41659Z" stroke="#6574D8" stroke-width="1.5"/>
</svg>
