<svg width="24.000000" height="24.000000" viewBox="0 0 24 24" fill="none" xmlns="http://www.w3.org/2000/svg" xmlns:xlink="http://www.w3.org/1999/xlink">

	<defs>
		<clipPath id="clip83_20464">
			<rect id="Bold Duotone / Map &amp; Location / Map Point" width="24.000000" height="24.000000" fill="white" fill-opacity="0"/>
		</clipPath>
	</defs>
	<g clip-path="url(#clip83_20464)">
		<g opacity="0.500000">
			<path id="Vector" d="M4 10.5C4 6 7.58 2 12 2C16.41 2 20 6 20 10.5C20 14.96 17.44 19.81 13.46 21.67C12.53 22.1 11.46 22.1 10.53 21.67C6.55 19.81 4 14.96 4 10.5Z" fill="currentColor" fill-opacity="1.000000" fill-rule="evenodd"/>
		</g>
		<path id="Vector" d="M14.5 10C14.5 11.38 13.38 12.5 12 12.5C10.61 12.5 9.5 11.38 9.5 10C9.5 8.61 10.61 7.5 12 7.5C13.38 7.5 14.5 8.61 14.5 10Z" fill="currentColor" fill-opacity="1.000000" fill-rule="evenodd"/>
	</g>
</svg>
