<svg width="91.000000" height="28.000000" viewBox="0 0 91 28" fill="none" xmlns="http://www.w3.org/2000/svg" xmlns:xlink="http://www.w3.org/1999/xlink">

	<defs/>
	<path id="Polygon 1" d="M19.51 25.68C17.73 28.77 13.26 28.77 11.48 25.68L0.62 6.94C-1.16 3.85 1.07 0 4.64 0L26.35 0C29.92 0 32.15 3.85 30.37 6.94L19.51 25.68Z" fill="#6574D8" fill-opacity="1.000000" fill-rule="nonzero"/>
	<path id="Polygon 3" d="M79.88 25.68C78.16 28.77 73.83 28.77 72.11 25.68L61.6 6.94C59.87 3.85 62.04 0 65.49 0L86.5 0C89.95 0 92.12 3.85 90.39 6.94L79.88 25.68Z" fill="#6574D8" fill-opacity="1.000000" fill-rule="nonzero"/>
	<path id="Polygon 2" d="M49.51 2.31C47.73 -0.78 43.26 -0.78 41.48 2.31L30.62 21.05C28.84 24.14 31.07 28 34.64 28L56.35 28C59.92 28 62.15 24.14 60.37 21.05L49.51 2.31Z" fill="#6574D8" fill-opacity="1.000000" fill-rule="nonzero"/>
</svg>
