<svg width="24.000000" height="24.000000" viewBox="0 0 24 24" fill="none" xmlns="http://www.w3.org/2000/svg" xmlns:xlink="http://www.w3.org/1999/xlink">

	<defs>
		<clipPath id="clip1798_7685">
			<rect id="Linear / School / Notebook" width="24.000000" height="24.000000" fill="white" fill-opacity="0"/>
		</clipPath>
	</defs>
	<g clip-path="url(#clip1798_7685)">
		<path id="Vector" d="M2 4.99C2 3.89 2.88 3 3.98 3.07C4.95 3.13 6.11 3.25 7 3.48C8.04 3.76 9.29 4.35 10.28 4.87C11.34 5.43 12.63 5.4 13.67 4.8C14.53 4.3 15.59 3.75 16.5 3.48C17.54 3.17 18.95 3.05 20.08 3.01C21.15 2.98 22 3.86 22 4.93L22 16.14C22 17.25 21.09 18.15 19.98 18.22C19.01 18.28 17.87 18.4 17 18.63C15.91 18.91 14.62 19.53 13.62 20.06C12.61 20.6 11.38 20.6 10.37 20.06C9.37 19.53 8.08 18.91 7 18.63C6.12 18.4 4.98 18.28 4.01 18.22C2.9 18.15 2 17.25 2 16.14L2 4.99Z" stroke="currentColor" stroke-opacity="1.000000" stroke-width="1.500000"/>
		<path id="Vector" d="M12 5.85L12 20" stroke="currentColor" stroke-opacity="1.000000" stroke-width="1.500000"/>
		<path id="Vector" d="M5 9L9 10" stroke="currentColor" stroke-opacity="1.000000" stroke-width="1.500000" stroke-linecap="round"/>
		<path id="Vector" d="M19 9L15 10" stroke="currentColor" stroke-opacity="1.000000" stroke-width="1.500000" stroke-linecap="round"/>
		<path id="Vector" d="M5 13L9 14" stroke="currentColor" stroke-opacity="1.000000" stroke-width="1.500000" stroke-linecap="round"/>
		<path id="Vector" d="M19 13L15 14" stroke="currentColor" stroke-opacity="1.000000" stroke-width="1.500000" stroke-linecap="round"/>
	</g>
</svg>
