<svg width="24.000000" height="24.000000" viewBox="0 0 24 24" fill="none" xmlns="http://www.w3.org/2000/svg" xmlns:xlink="http://www.w3.org/1999/xlink">

	<defs>
		<clipPath id="clip65_11400">
			<rect id="Bold / Arrows / Square Double Alt Arrow Left" width="24.000000" height="24.000000" fill="white" fill-opacity="0"/>
		</clipPath>
	</defs>
	<g clip-path="url(#clip65_11400)">
		<path id="Vector" d="M2 12C2 7.28 2 4.92 3.46 3.46C4.92 2 7.28 2 12 2C16.71 2 19.07 2 20.53 3.46C22 4.92 22 7.28 22 12C22 16.71 22 19.07 20.53 20.53C19.07 22 16.71 22 12 22C7.28 22 4.92 22 3.46 20.53C2 19.07 2 16.71 2 12ZM16.03 9.53C16.32 9.23 16.32 8.76 16.03 8.46C15.73 8.17 15.26 8.17 14.96 8.46L11.96 11.46C11.67 11.76 11.67 12.23 11.96 12.53L14.96 15.53C15.26 15.82 15.73 15.82 16.03 15.53C16.32 15.23 16.32 14.76 16.03 14.46L13.56 12L16.03 9.53ZM12.03 8.46C12.32 8.76 12.32 9.23 12.03 9.53L9.56 12L12.03 14.46C12.32 14.76 12.32 15.23 12.03 15.53C11.73 15.82 11.26 15.82 10.96 15.53L7.96 12.53C7.67 12.23 7.67 11.76 7.96 11.46L10.96 8.46C11.26 8.17 11.73 8.17 12.03 8.46Z" fill="#6574D8" fill-opacity="1.000000" fill-rule="evenodd"/>
	</g>
</svg>
