<svg width="20" height="20" viewBox="0 0 20 20" fill="none" xmlns="http://www.w3.org/2000/svg">
<g id="Icon">
<path id="Vector" opacity="0.5" d="M15.5545 13.2236L14.806 13.1759L14.806 13.1759L15.5545 13.2236ZM4.44551 13.2236L3.69703 13.2713L3.69703 13.2713L4.44551 13.2236ZM5.43076 17.5949L5.95552 17.0591L5.95552 17.0591L5.43076 17.5949ZM4.22325 9.7337L4.97173 9.68603L4.97173 9.68603L4.22325 9.7337ZM15.7768 9.7337L15.0283 9.68603L15.0283 9.68603L15.7768 9.7337ZM9.66302 19.0832H10.337V17.5832H9.66302V19.0832ZM16.303 13.2713L16.5253 9.78137L15.0283 9.68603L14.806 13.1759L16.303 13.2713ZM3.47477 9.78137L3.69703 13.2713L5.194 13.1759L4.97173 9.68603L3.47477 9.78137ZM10.337 19.0832C11.4751 19.0832 12.4052 19.0848 13.1418 18.984C13.9031 18.8797 14.559 18.6547 15.094 18.1308L14.0445 17.0591C13.8257 17.2734 13.5249 17.4175 12.9383 17.4978C12.327 17.5816 11.5179 17.5832 10.337 17.5832V19.0832ZM14.806 13.1759C14.7277 14.4065 14.672 15.2595 14.55 15.9005C14.4314 16.5234 14.2676 16.8406 14.0445 17.0591L15.094 18.1308C15.6248 17.611 15.8765 16.9535 16.0235 16.1809C16.1671 15.4263 16.2271 14.4627 16.303 13.2713L14.806 13.1759ZM9.66302 17.5832C8.48219 17.5832 7.67306 17.5816 7.06174 17.4978C6.47512 17.4175 6.17435 17.2734 5.95552 17.0591L4.906 18.1308C5.44104 18.6547 6.09694 18.8797 6.85825 18.984C7.59486 19.0848 8.52493 19.0832 9.66302 19.0832V17.5832ZM3.69703 13.2713C3.77291 14.4627 3.8329 15.4263 3.97651 16.1809C4.12354 16.9535 4.37522 17.611 4.906 18.1308L5.95552 17.0591C5.73244 16.8406 5.56862 16.5234 5.45006 15.9005C5.32807 15.2595 5.27237 14.4065 5.194 13.1759L3.69703 13.2713ZM6.77006 7.67969H13.23V6.17969H6.77006V7.67969ZM4.97173 9.68603C4.92853 9.00774 4.90249 8.574 4.92457 8.25502C4.94533 7.9553 5.00279 7.88147 5.03108 7.85033L3.92072 6.84182C3.57081 7.22706 3.46011 7.68997 3.42816 8.15142C3.39754 8.59362 3.43427 9.1455 3.47477 9.78137L4.97173 9.68603ZM6.77006 6.17969C6.15398 6.17969 5.61197 6.17791 5.18038 6.23918C4.72464 6.30389 4.27397 6.45289 3.92072 6.84182L5.03108 7.85033C5.05602 7.82287 5.11377 7.76368 5.39123 7.72429C5.69285 7.68147 6.10882 7.67969 6.77006 7.67969V6.17969ZM16.5253 9.78137C16.5658 9.14549 16.6025 8.59362 16.5719 8.15142C16.5399 7.68997 16.4292 7.22706 16.0793 6.84182L14.969 7.85033C14.9973 7.88147 15.0547 7.95529 15.0755 8.25502C15.0975 8.574 15.0715 9.00774 15.0283 9.68603L16.5253 9.78137ZM13.23 7.67969C13.8912 7.67969 14.3072 7.68147 14.6088 7.72429C14.8863 7.76368 14.944 7.82287 14.969 7.85033L16.0793 6.84182C15.7261 6.45289 15.2754 6.30389 14.8197 6.23918C14.3881 6.17791 13.8461 6.17969 13.23 6.17969V7.67969Z" fill="currentColor"/>
<path id="Vector_2" d="M2.5 5.32148C2.5 4.91777 2.78782 4.59049 3.14286 4.59049L5.36306 4.5901C5.80419 4.57739 6.19335 4.25845 6.34345 3.7866C6.3474 3.7742 6.35193 3.75889 6.36821 3.70337L6.46388 3.37697C6.52242 3.17684 6.57342 3.00249 6.64479 2.84665C6.92674 2.23097 7.4484 1.80344 8.05122 1.69398C8.20381 1.66627 8.3654 1.66639 8.55088 1.66652H11.4493C11.6347 1.66639 11.7963 1.66627 11.9489 1.69398C12.5517 1.80344 13.0734 2.23097 13.3554 2.84665C13.4267 3.00249 13.4777 3.17684 13.5363 3.37697L13.6319 3.70337C13.6482 3.75889 13.6527 3.7742 13.6567 3.7866C13.8068 4.25845 14.2732 4.57778 14.7143 4.59049H16.8571C17.2122 4.59049 17.5 4.91777 17.5 5.32148C17.5 5.72519 17.2122 6.05247 16.8571 6.05247H3.14286C2.78782 6.05247 2.5 5.72519 2.5 5.32148Z" fill="currentColor"/>
<g id="Vector_3">
<path fill-rule="evenodd" clip-rule="evenodd" d="M7.85448 9.56777C8.19795 9.53161 8.50422 9.79539 8.53857 10.1569L8.95524 14.5429C8.98958 14.9044 8.73899 15.2268 8.39553 15.263C8.05206 15.2991 7.74579 15.0354 7.71144 14.6738L7.29477 10.2879C7.26043 9.92632 7.51102 9.60392 7.85448 9.56777Z" fill="currentColor"/>
<path fill-rule="evenodd" clip-rule="evenodd" d="M12.1455 9.56777C12.489 9.60392 12.7396 9.92632 12.7052 10.2879L12.2886 14.6738C12.2542 15.0354 11.9479 15.2991 11.6045 15.263C11.261 15.2268 11.0104 14.9044 11.0448 14.5429L11.4614 10.1569C11.4958 9.79539 11.8021 9.53161 12.1455 9.56777Z" fill="currentColor"/>
</g>
</g>
</svg>
