<svg width="24" height="25" viewBox="0 0 24 25" fill="none" xmlns="http://www.w3.org/2000/svg">
<g id="Bold / Users / User Check Rounded">
<circle id="Vertical container" cx="12" cy="6.5" r="4" fill="currentColor"/>
<path id="Vector" fill-rule="evenodd" clip-rule="evenodd" d="M21.4685 16.9144C21.792 17.1731 21.8444 17.6451 21.5857 17.9685L19.5857 20.4685C19.4524 20.6351 19.2545 20.7371 19.0415 20.7489C18.8285 20.7607 18.6205 20.6812 18.4697 20.5304L17.4697 19.5304C17.1768 19.2375 17.1768 18.7626 17.4697 18.4697C17.7626 18.1768 18.2374 18.1768 18.5303 18.4697L18.9371 18.8765L20.4143 17.0315C20.6731 16.7081 21.1451 16.6556 21.4685 16.9144Z" fill="currentColor"/>
<path id="Vector_2" d="M18.8272 16.6137L18.6433 16.8434C17.8773 16.6156 17.0138 16.8041 16.409 17.4089C15.5303 18.2876 15.5303 19.7122 16.409 20.5909L16.4207 20.6026C15.2154 21.1642 13.6765 21.501 12 21.501C8.13401 21.501 5 19.7101 5 17.501C5 15.2918 8.13401 13.501 12 13.501C15.3324 13.501 18.1209 14.8316 18.8272 16.6137Z" fill="currentColor"/>
</g>
</svg>
