<svg width="24.000000" height="24.000000" viewBox="0 0 24 24" fill="none" xmlns="http://www.w3.org/2000/svg" xmlns:xlink="http://www.w3.org/1999/xlink">

	<defs>
		<clipPath id="clip2709_9946">
			<rect id="Bold Duotone / Users / User Plus Rounded" width="24.000000" height="24.000000" fill="white" fill-opacity="0"/>
		</clipPath>
	</defs>
	<g clip-path="url(#clip2709_9946)">
		<circle id="Vector" cx="12.000000" cy="6.000000" r="4.000000" fill="currentColor" fill-opacity="1.000000"/>
		<g opacity="0.500000">
			<path id="Subtract" d="M18.09 15.03C17.66 15 17.14 15 16.5 15C14.85 15 14.02 15 13.51 15.51C13 16.02 13 16.85 13 18.5C13 19.66 13 20.42 13.18 20.94C12.79 20.98 12.4 21 12 21C8.13 21 5 19.2 5 17C5 14.79 8.13 13 12 13C14.61 13 16.89 13.81 18.09 15.03Z" fill="currentColor" fill-opacity="1.000000" fill-rule="nonzero"/>
		</g>
		<path id="Vector" d="M16.5 22C14.85 22 14.02 22 13.51 21.48C13 20.97 13 20.14 13 18.5C13 16.85 13 16.02 13.51 15.51C14.02 15 14.85 15 16.5 15C18.14 15 18.97 15 19.48 15.51C20 16.02 20 16.85 20 18.5C20 20.14 20 20.97 19.48 21.48C18.97 22 18.14 22 16.5 22ZM17.08 16.94C17.08 16.62 16.82 16.36 16.5 16.36C16.17 16.36 15.91 16.62 15.91 16.94L15.91 17.91L14.94 17.91C14.62 17.91 14.36 18.17 14.36 18.5C14.36 18.82 14.62 19.08 14.94 19.08L15.91 19.08L15.91 20.05C15.91 20.37 16.17 20.63 16.5 20.63C16.82 20.63 17.08 20.37 17.08 20.05L17.08 19.08L18.05 19.08C18.37 19.08 18.63 18.82 18.63 18.5C18.63 18.17 18.37 17.91 18.05 17.91L17.08 17.91L17.08 16.94Z" fill="currentColor" fill-opacity="1.000000" fill-rule="evenodd"/>
	</g>
</svg>
