<svg width="20.000000" height="20.000000" viewBox="0 0 20 20" fill="none" xmlns="http://www.w3.org/2000/svg" xmlns:xlink="http://www.w3.org/1999/xlink">

	<defs>
		<clipPath id="clip83_18489">
			<rect id="Bold Duotone / Money / Wallet Money" width="20.000000" height="20.000000" fill="white" fill-opacity="0"/>
		</clipPath>
	</defs>
	<g clip-path="url(#clip83_18489)">
		<path id="Vector" d="M4.07 8.01C4.07 7.67 4.34 7.4 4.67 7.4L7.89 7.4C8.22 7.4 8.49 7.67 8.49 8.01C8.49 8.34 8.22 8.61 7.89 8.61L4.67 8.61C4.34 8.61 4.07 8.34 4.07 8.01Z" fill="currentColor" fill-opacity="1.000000" fill-rule="nonzero"/>
		<path id="Vector" d="M17.65 8.33C17.6 8.33 17.54 8.33 17.49 8.33L17.47 8.33L15.17 8.33C13.28 8.33 11.66 9.78 11.66 11.66C11.66 13.55 13.28 15 15.17 15L17.47 15L17.49 15C17.54 15 17.6 15 17.65 14.99C18.42 14.94 19.1 14.36 19.16 13.54C19.16 13.49 19.16 13.43 19.16 13.38L19.16 13.37L19.16 9.96L19.16 9.94C19.16 9.89 19.16 9.83 19.16 9.78C19.1 8.96 18.42 8.38 17.65 8.33ZM14.97 12.55C15.46 12.55 15.85 12.15 15.85 11.66C15.85 11.17 15.46 10.77 14.97 10.77C14.48 10.77 14.09 11.17 14.09 11.66C14.09 12.15 14.48 12.55 14.97 12.55Z" fill="currentColor" fill-opacity="1.000000" fill-rule="evenodd"/>
		<g opacity="0.500000">
			<path id="Subtract" d="M17.61 8.33C17.61 7.35 17.58 6.29 16.95 5.53C16.89 5.46 16.82 5.39 16.75 5.32C16.13 4.7 15.34 4.42 14.36 4.29C13.41 4.16 12.2 4.16 10.67 4.16L8.91 4.16C7.37 4.16 6.16 4.16 5.21 4.29C4.24 4.42 3.44 4.7 2.82 5.32C2.2 5.94 1.92 6.74 1.79 7.71C1.66 8.66 1.66 9.87 1.66 11.41L1.66 11.5C1.66 13.03 1.66 14.24 1.79 15.19C1.92 16.17 2.2 16.96 2.82 17.59C3.44 18.21 4.24 18.49 5.21 18.62C6.16 18.75 7.37 18.75 8.91 18.75L10.67 18.75C12.2 18.75 13.41 18.75 14.36 18.62C15.34 18.49 16.13 18.21 16.75 17.59C16.92 17.41 17.07 17.23 17.19 17.04C17.57 16.44 17.61 15.7 17.61 14.99C17.57 15 17.53 15 17.49 15L15.17 15C13.28 15 11.66 13.55 11.66 11.66C11.66 9.77 13.28 8.33 15.17 8.33L17.49 8.33C17.53 8.33 17.57 8.33 17.61 8.33Z" fill="currentColor" fill-opacity="1.000000" fill-rule="nonzero"/>
		</g>
		<path id="Subtract" d="M8.41 2.14L6.66 3.32L5.22 4.29C6.17 4.16 7.38 4.16 8.91 4.16L10.67 4.16C12.2 4.16 13.41 4.16 14.36 4.29C14.55 4.31 14.74 4.35 14.91 4.38L13.33 3.33L11.57 2.14C10.63 1.5 9.35 1.5 8.41 2.14Z" fill="currentColor" fill-opacity="1.000000" fill-rule="nonzero"/>
	</g>
</svg>
